<svg width="55" height="56" fill="none" xmlns="http://www.w3.org/2000/svg"><rect opacity=".6" y=".5" width="55" height="55" rx="24" fill="#F1C1C9"/><path fill-rule="evenodd" clip-rule="evenodd" d="M26.75 10.322a.76.76 0 01.75-.769.76.76 0 01.75.769v3.074a.76.76 0 01-.75.768.76.76 0 01-.75-.768v-3.074zM36.5 21.85h3a.76.76 0 01.75.768.76.76 0 01-.75.769h-3a.76.76 0 01-.75-.769.76.76 0 01.75-.768zm-18 0h-3a.76.76 0 00-.75.768.76.76 0 00.75.769h3a.76.76 0 00.75-.769.76.76 0 00-.75-.768zm16.955-8.47c.292-.3.768-.3 1.06 0a.78.78 0 010 1.086l-2.12 2.175a.738.738 0 01-1.061 0 .783.783 0 010-1.088l2.12-2.174zm-13.788 2.173l-2.122-2.174a.738.738 0 00-1.06 0 .783.783 0 000 1.087l2.12 2.175a.744.744 0 001.061 0 .783.783 0 000-1.088zm9.332 15.536a3.347 3.347 0 014.604.808 2.35 2.35 0 01-.141 2.942l-6.07 6.789a5.33 5.33 0 01-.216.226.768.768 0 01.574.748v3.075a.76.76 0 01-.75.769.76.76 0 01-.75-.769v-2.306h-9v2.306a.76.76 0 01-.75.769.76.76 0 01-.75-.769v-3.075a.76.76 0 01.75-.769h.262a6.973 6.973 0 01-2.512-5.38v-6.148c0-1.272 1.01-2.306 2.25-2.306.293 0 .572.058.83.161.259-.978 1.135-1.699 2.17-1.699.293 0 .572.059.83.162.259-.978 1.135-1.699 2.17-1.699.262 0 .516.046.75.131v-2.437c0-1.27 1.01-2.305 2.25-2.305s2.25 1.034 2.25 2.305v9.324L31 31.09zm-2.714 9.498a3.715 3.715 0 01-2.71 1.246h-2.64c-2.865-.036-5.185-2.435-5.185-5.38v-6.148a.76.76 0 01.75-.769.76.76 0 01.75.769v.768a.76.76 0 00.75.769.76.76 0 00.75-.769v-2.306A.76.76 0 0121.5 28a.76.76 0 01.75.768v2.306a.76.76 0 00.75.769.76.76 0 00.75-.769v-3.843a.76.76 0 01.75-.768.76.76 0 01.75.768v3.843a.76.76 0 00.75.769.76.76 0 00.75-.769V22.62a.76.76 0 01.75-.768.76.76 0 01.75.768v10.76a.77.77 0 00.398.676c.242.134.54.119.769-.038l2.415-1.651a1.87 1.87 0 012.571.452.783.783 0 01-.048.98l-6.07 6.789zM22.25 22.619c0-2.967 2.355-5.38 5.25-5.38s5.25 2.413 5.25 5.38a.76.76 0 01-.75.769.76.76 0 01-.75-.769c0-2.118-1.683-3.843-3.75-3.843s-3.75 1.725-3.75 3.843a.76.76 0 01-.75.769.76.76 0 01-.75-.769z" fill="#D62642"/></svg>