<svg width="55" height="56" fill="none" xmlns="http://www.w3.org/2000/svg"><rect opacity=".6" y=".5" width="55" height="55" rx="24" fill="#FAE3AF"/><path d="M24.336 36.719c0 1.788 1.42 3.242 3.164 3.242 1.745 0 3.164-1.454 3.164-3.242s-1.42-3.242-3.164-3.242c-1.745 0-3.164 1.454-3.164 3.242zm3.164-1.08c.582 0 1.055.484 1.055 1.08 0 .596-.473 1.08-1.055 1.08s-1.055-.484-1.055-1.08c0-.596.473-1.08 1.055-1.08z" fill="#D69026"/><path d="M10.555 39.962h7.811l1.968 3.493c.14.248.37.43.64.504.27.074.559.035.8-.108l1.067-.631c.593-.351 1.495.1 1.495.848v1.298c0 .597.472 1.08 1.055 1.08h4.218c.583 0 1.055-.483 1.055-1.08v-1.261c0-.778.883-1.247 1.556-.85l1.005.596c.504.298 1.15.12 1.44-.396l1.969-3.493h7.811c.583 0 1.055-.484 1.055-1.081V10.634c0-.597-.472-1.08-1.055-1.08H31.72c-1.724 0-3.256.85-4.219 2.165-.963-1.314-2.495-2.166-4.219-2.166H10.555c-.583 0-1.055.484-1.055 1.081v28.247c0 .597.472 1.08 1.055 1.08zm18-25.004c0-1.788 1.42-3.243 3.164-3.243H43.39V37.8h-7.453c-.082 0-.16.01-.236.028l-.418-.248c-.638-.377-.614-1.359.03-1.74l1.075-.636c.504-.299.677-.96.386-1.477l-2.11-3.744a1.041 1.041 0 00-1.44-.396l-.998.591c-.674.399-1.563-.062-1.563-.838v-1.268c0-.597-.472-1.08-1.055-1.08h-1.054V14.957zm0 14.195v.187c0 2.455 2.659 3.934 4.726 2.71l.085-.05 1.055 1.872-.161.096c-2.04 1.206-2.086 4.268-.03 5.484l.191.114-1.055 1.872-.091-.054c-2.06-1.218-4.72.257-4.72 2.721v.18h-2.11v-.217c0-2.384-2.636-3.917-4.66-2.72l-.151.09-1.055-1.872.251-.149c2.06-1.219 1.878-4.285-.15-5.485l-.101-.06L21.634 32l.126.075c2.052 1.214 4.685-.325 4.685-2.735v-.187h2.11zM11.609 11.715h11.672c1.745 0 3.164 1.455 3.164 3.243V26.99h-1.054c-.583 0-1.055.484-1.055 1.081v1.268c0 .746-.867 1.25-1.521.863l-1.04-.616a1.04 1.04 0 00-1.44.396l-2.11 3.744a1.096 1.096 0 00.386 1.477l1.015.6c.647.383.772 1.373.15 1.741l-.478.283a1.032 1.032 0 00-.235-.028h-7.454V11.715z" fill="#D69026"/><path d="M14.773 18.273h8.508c.583 0 1.055-.485 1.055-1.081 0-.597-.472-1.081-1.055-1.081h-8.508c-.582 0-1.054.484-1.054 1.08 0 .598.472 1.082 1.054 1.082zm9.563 3.242c0-.597-.472-1.081-1.055-1.081h-8.508c-.582 0-1.054.484-1.054 1.08 0 .598.472 1.082 1.054 1.082h8.508c.583 0 1.055-.484 1.055-1.081zm7.383 1.081h8.508c.582 0 1.054-.484 1.054-1.081s-.472-1.081-1.054-1.081h-8.508c-.583 0-1.055.484-1.055 1.08 0 .598.472 1.082 1.055 1.082zm0-4.323h8.508c.582 0 1.054-.485 1.054-1.081 0-.597-.472-1.081-1.054-1.081h-8.508c-.583 0-1.055.484-1.055 1.08 0 .598.472 1.082 1.055 1.082z" fill="#D69026"/></svg>