<svg width="55" height="56" fill="none" xmlns="http://www.w3.org/2000/svg"><rect opacity=".6" y=".5" width="55" height="55" rx="24" fill="#C5F2DC"/><path fill-rule="evenodd" clip-rule="evenodd" d="M35.29 31.908l9.386 9.618c.531.545.824 1.268.824 2.038a2.9 2.9 0 01-.824 2.038 2.76 2.76 0 01-3.977 0l-6.79-6.958-.001-.001-2.594-2.659a13.697 13.697 0 01-7.752 2.392c-7.754 0-14.062-6.465-14.062-14.411 0-7.947 6.308-14.412 14.063-14.412 7.754 0 14.062 6.465 14.062 14.412 0 2.85-.805 5.583-2.334 7.943zm-4.307 2.557a12.882 12.882 0 002.826-2.896 13.076 13.076 0 002.41-7.604c0-7.152-5.678-12.971-12.657-12.971-6.978 0-12.656 5.819-12.656 12.97 0 7.152 5.678 12.971 12.656 12.971 2.685 0 5.25-.854 7.42-2.47zm3.463-1.384a14.29 14.29 0 01-1.988 2.038l1.995 2.044a17.274 17.274 0 001.988-2.038l-1.995-2.044zm8.242 11.925c.375 0 .728-.15.994-.423a1.45 1.45 0 00.412-1.019 1.45 1.45 0 00-.412-1.018l-6.244-6.399a18.705 18.705 0 01-1.988 2.038l6.243 6.398c.266.273.62.423.995.423zM30.593 23.965c0-.398.315-.72.703-.72.388 0 .703.322.703.72 0 .397-.315.72-.703.72a.712.712 0 01-.703-.72zm-7.032-11.53c-6.203 0-11.25 5.172-11.25 11.53 0 6.357 5.047 11.529 11.25 11.529 6.204 0 11.25-5.172 11.25-11.53 0-6.357-5.046-11.529-11.25-11.529zm0 21.618c-5.427 0-9.843-4.526-9.843-10.089 0-5.562 4.416-10.088 9.844-10.088 5.427 0 9.843 4.526 9.843 10.088 0 5.563-4.416 10.089-9.843 10.089zm4.831-17.175a8.62 8.62 0 013.05 3.993.726.726 0 01-.405.931.687.687 0 01-.252.048.704.704 0 01-.657-.462c-1.038-2.77-3.677-4.63-6.567-4.63a.712.712 0 01-.703-.72c0-.398.315-.72.703-.72 1.739 0 3.41.54 4.831 1.56z" fill="#1ECE7A"/></svg>