<svg width="55" height="56" fill="none" xmlns="http://www.w3.org/2000/svg"><rect opacity=".6" y=".5" width="55" height="55" rx="24" fill="#C5D7F2"/><path fill-rule="evenodd" clip-rule="evenodd" d="M44.798 9.576c-.88-.053-6.123-.23-12.214 2.646a.595.595 0 00-.189.14c-4.151 2-8.642 5.412-12.301 11.216l-4.698-.32a.588.588 0 00-.599.388l-3.639 9.53a.623.623 0 00.196.714.588.588 0 00.723.002l3.02-2.32 1.58.323 2.384 2.443-.653 1.202a3.698 3.698 0 00-2.612-.266 4.062 4.062 0 00-2.696 2.305l-3.546 7.998a.625.625 0 00.121.69.59.59 0 00.673.124l7.803-3.636a4.11 4.11 0 002.25-2.762 3.96 3.96 0 00-.299-2.757l1.113-.69 2.484 2.545.315 1.618-2.264 3.095a.627.627 0 00.002.741.595.595 0 00.696.202l9.3-3.73a.616.616 0 00.38-.613l-.314-4.816c5.662-3.75 8.991-8.35 10.943-12.604a.596.596 0 01-.407.162.593.593 0 01-.424-.18l-.298-.306c-2.17 4.612-6.358 10.189-14.439 14.166-.9.443-1.832.858-2.79 1.243l-2.046-2.096 4.865-3.148a.616.616 0 00.28-.522v-3.689a.608.608 0 00-.6-.614h-4.042a.589.589 0 00-.335.105.61.61 0 00-.192.214l-.078.145-2.584 4.757-1.993-2.044a42.677 42.677 0 011.447-3.354c3.746-7.717 8.906-11.953 13.62-14.27l7.147-2.357c2.05-.374 3.629-.416 4.405-.405.013.862-.028 2.687-.468 5.032.442-2.35.483-4.173.469-5.033-.759-.013-2.29.02-4.274.362l4.778-1.576zm-4.778 1.576a27.097 27.097 0 00-6.14 1.827l.031.033a27.41 27.41 0 015.977-1.816l.132-.044zM17.258 37.66l.565-1.042a2.48 2.48 0 00-1.065-.238c-.22 0-.444.029-.667.086a2.859 2.859 0 00-1.898 1.622l-2.885 6.506 6.347-2.957a2.896 2.896 0 001.583-1.945 2.725 2.725 0 00-.15-1.783l-1.01.586a.588.588 0 01-.72-.1.625.625 0 01-.1-.735zm1.207-11.222a39.83 39.83 0 01.912-1.676l-3.623-.247-2.71 7.098 1.547-1.19a.593.593 0 01.478-.11l1.527.312a42.83 42.83 0 011.869-4.187zm1.774 8.26l-.834 1.535 6.893-4.275V29.23H23.21l-2.859 5.318a.613.613 0 01-.112.149zm4.699 4.476l.305 1.564a.627.627 0 01-.108.49l-1.16 1.586 6.925-2.778-.241-3.711c-.527.319-1.068.628-1.62.926a40.801 40.801 0 01-4.101 1.923zm11.058-19.88a5.091 5.091 0 00-7.318 0c-2.017 2.067-2.017 5.43 0 7.499a5.093 5.093 0 007.318 0c2.018-2.068 2.018-5.432 0-7.5zm-.848 6.63a3.911 3.911 0 01-5.621 0c-1.55-1.59-1.55-4.173 0-5.761a3.914 3.914 0 015.62 0c1.55 1.588 1.55 4.172 0 5.76zm-4.004-1.659a1.66 1.66 0 002.386 0 .589.589 0 01.848 0c.235.24.235.63 0 .87a2.84 2.84 0 01-4.083 0 3.015 3.015 0 010-4.184 2.84 2.84 0 014.083 0 .625.625 0 010 .869.589.589 0 01-.848 0 1.66 1.66 0 00-2.386 0 1.762 1.762 0 000 2.445z" fill="#2682D6"/></svg>