<svg width="55" height="56" fill="none" xmlns="http://www.w3.org/2000/svg"><rect opacity=".6" y=".5" width="55" height="55" rx="24" fill="#F1C1C9"/><path fill-rule="evenodd" clip-rule="evenodd" d="M27.5 9.553c-5.353 0-10.409 2.551-13.781 6.668V15.03c0-.598-.472-1.081-1.055-1.081s-1.055.483-1.055 1.08v4.592c0 1.032 1.3 1.18 1.055 1.081.02 0 .04 0 .06-.002h.005l4.219-.268a1.072 1.072 0 00.988-1.145 1.073 1.073 0 00-1.118-1.013l-2.137.137c2.96-4.127 7.75-6.696 12.819-6.696 8.724 0 15.89 7.345 15.89 16.285 0 .598.472 1.081 1.055 1.081s1.055-.483 1.055-1.08c0-10.133-8.113-18.448-18-18.448zm7.355 18.2a1.07 1.07 0 00-.693-.777l-5.175-1.768 3.675-7.533a1.1 1.1 0 00-.326-1.36 1.036 1.036 0 00-1.363.113L20.426 27.236a1.1 1.1 0 00-.28 1.012c.084.366.345.66.692.777l5.175 1.768-3.675 7.532a1.1 1.1 0 00.326 1.361c.42.308.996.263 1.363-.113l10.547-10.808a1.1 1.1 0 00.281-1.013zm3.197 7.815l4.219-.268c.564-.033 1.12.485 1.12 1.079v4.591c0 .598-.472 1.081-1.055 1.081a1.067 1.067 0 01-1.055-1.08v-1.192c-3.372 4.116-8.428 6.668-13.781 6.668-9.887 0-18-8.315-18-18.447 0-.598.472-1.081 1.055-1.081s1.054.483 1.054 1.08c0 8.941 7.167 16.286 15.891 16.286 5.07 0 9.859-2.569 12.82-6.696l-2.138.137c-.562.037-1.081-.417-1.117-1.013a1.072 1.072 0 01.987-1.145z" fill="#D62642"/></svg>