<svg width="56" height="56" fill="none" xmlns="http://www.w3.org/2000/svg"><rect opacity=".6" x=".75" y=".5" width="55" height="55" rx="24" fill="#FAE3AF"/><path fill-rule="evenodd" clip-rule="evenodd" d="M27.586 12.667c0-.368.297-.667.664-.667.367 0 .664.299.664.667V18a.666.666 0 01-.664.667.666.666 0 01-.664-.667v-5.333zm-6.38 7.986L17.45 16.88a.662.662 0 00-.94 0 .669.669 0 000 .943l3.757 3.771c.26.26.68.26.94 0a.669.669 0 000-.942zM39.05 16.88c.26-.26.68-.26.94 0a.67.67 0 010 .943l-3.757 3.771c-.26.26-.68.26-.94 0a.669.669 0 010-.942l3.757-3.772zm-.968 21.786h.793c1.098 0 1.992.897 1.992 2v2.666a.665.665 0 01-.664.667H16.297a.665.665 0 01-.664-.667v-2.666c0-1.103.893-2 1.992-2h.793L20.58 26.5a4.651 4.651 0 014.574-3.834h6.192a4.652 4.652 0 014.574 3.832l2.162 12.168zM25.154 24a3.322 3.322 0 00-3.267 2.737l-2.12 11.93h16.966l-2.12-11.932A3.322 3.322 0 0031.346 24h-6.192zm-8.193 18.667h22.578v-2a.666.666 0 00-.664-.667h-21.25c-.366 0-.664.3-.664.667v2zm15.273-14c0-.368.298-.667.664-.667a.666.666 0 010 1.333.666.666 0 01-.664-.666zm2.805 7.88l-.974-5.383a.664.664 0 10-1.307.238l.974 5.384a.664.664 0 101.307-.239zM38.875 28h5.71c.368 0 .665.299.665.667a.665.665 0 01-.664.666h-5.711a.665.665 0 01-.664-.666c0-.369.297-.667.664-.667zm-21.25 0h-5.71a.665.665 0 00-.665.667c0 .368.297.666.664.666h5.711a.665.665 0 00.664-.666.665.665 0 00-.664-.667z" fill="#D69026"/></svg>