<svg width="55" height="56" fill="none" xmlns="http://www.w3.org/2000/svg"><rect opacity=".6" y=".5" width="55" height="55" rx="24" fill="#C5F2DC"/><path d="M11.854 26.05c.939-5.454 4.696-9.92 9.669-11.76l-.234.414a1.224 1.224 0 00.431 1.65c.186.11.389.162.589.162.407 0 .803-.216 1.021-.603l1.625-2.883c.156-.277.199-.607.118-.916a1.204 1.204 0 00-.55-.734L21.71 9.715a1.163 1.163 0 00-1.61.442 1.224 1.224 0 00.432 1.65l.293.173c-5.806 2.107-10.2 7.3-11.292 13.65a18.14 18.14 0 00.779 9.148c.174.49.626.794 1.107.794.134 0 .27-.024.403-.073.612-.23.927-.922.704-1.549a15.673 15.673 0 01-.672-7.9zm27.842 12.363a1.159 1.159 0 00-1.66.147c-3.429 4.18-8.813 6.189-14.053 5.24a14.814 14.814 0 01-6.893-3.25h.38c.65 0 1.178-.542 1.178-1.209s-.527-1.207-1.178-1.207h-3.138a1.15 1.15 0 00-.867.276 1.21 1.21 0 00-.415.804v.004c-.004.035-.005.07-.006.105v.018l-.002 3.328c0 .667.527 1.208 1.178 1.209.651 0 1.179-.54 1.179-1.208v-.42a17.157 17.157 0 008.175 3.93c.993.18 1.992.267 2.984.267 5.063 0 9.964-2.288 13.282-6.332a1.228 1.228 0 00-.144-1.702zm5.877-6.155a1.163 1.163 0 00-1.61-.442l-.387.23c.016-.086.035-.17.05-.256.802-4.666-.216-9.374-2.868-13.255-2.652-3.88-6.62-6.471-11.173-7.293a1.181 1.181 0 00-1.365.98c-.113.656.315 1.283.956 1.399 3.933.71 7.36 2.947 9.651 6.3 2.287 3.346 3.167 7.402 2.482 11.425l-.173-.306a1.163 1.163 0 00-1.61-.443 1.224 1.224 0 00-.432 1.65l1.624 2.884a1.183 1.183 0 001.021.604c.205 0 .409-.055.59-.162l2.813-1.665a1.224 1.224 0 00.431-1.65z" fill="#1ECE7A"/></svg>