<svg width="56" height="56" fill="none" xmlns="http://www.w3.org/2000/svg"><rect opacity=".6" x=".75" y=".5" width="55" height="55" rx="24" fill="#C5D7F2"/><path fill-rule="evenodd" clip-rule="evenodd" d="M41.85 26.61a3.944 3.944 0 013.359 3.321c.313 2.143-1.191 4.132-3.36 4.441-2.168.31-4.18-1.177-4.492-3.32-.313-2.144 1.191-4.133 3.36-4.442v-1.017c0-2.193-1.653-3.977-3.684-3.977-1.973 0-3.627 1.73-3.683 3.856v11.012c0 4.142-3.178 7.516-7.084 7.516-3.905 0-7.083-3.37-7.083-7.516v-.956c-.821 0-1.7-.588-1.7-2.24v-1.41c-3.635-.916-6.233-4.005-6.233-7.509v-1.165h1.133v-7.282a2.81 2.81 0 012.357-2.754 1.714 1.714 0 013.214-.097 1.682 1.682 0 01-.965 2.19 1.714 1.714 0 01-2.214-.955 1.684 1.684 0 00-1.258 1.616v7.282h1.7v1.184a4.461 4.461 0 003.254 4.18 5.21 5.21 0 003.117 0 4.464 4.464 0 003.262-4.18v-1.184h1.133l-.025-7.287a1.684 1.684 0 00-1.235-1.604 1.683 1.683 0 01-1.044.966 1.695 1.695 0 01-2.132-1.07 1.668 1.668 0 011.082-2.108 1.695 1.695 0 012.132 1.07 2.813 2.813 0 012.332 2.742l.023 7.291h1.134v1.168c0 3.5-2.597 6.587-6.233 7.507v1.409c0 1.652-.879 2.24-1.7 2.24v.956c0 3.526 2.668 6.396 5.95 6.396 3.28 0 5.95-2.866 5.95-6.396V25.445l.032-.006h-.033c.078-2.727 2.237-4.945 4.817-4.945 2.656 0 4.816 2.288 4.816 5.098v1.018zM22.582 13.681c0 .31.254.56.567.56.313 0 .567-.25.567-.56 0-.31-.254-.56-.567-.56a.563.563 0 00-.567.56zm-5.666 0c0-.31-.254-.56-.567-.56a.563.563 0 00-.567.56c0 .31.254.56.567.56.313 0 .567-.25.567-.56zm-4.534 10.644v.044c0 3.117 2.43 5.859 5.78 6.521a8.174 8.174 0 003.173.001c3.35-.663 5.78-3.405 5.78-6.522v-.044h-1.133v.063c-.043 2.436-1.683 4.561-4.048 5.245a6.375 6.375 0 01-3.807 0c-2.364-.685-4.002-2.81-4.045-5.245v-.063h-1.7zm6.234 8.963c0 .336.056 1.12.566 1.12h1.133c.51 0 .567-.784.567-1.12v-1.19c-.024.004-.049.006-.073.008a9.189 9.189 0 01-1.046.061h-.029a9.48 9.48 0 01-.81-.04l-.043-.004a5.533 5.533 0 01-.128-.012l-.055-.005a1.711 1.711 0 01-.082-.007v1.189zm19.833-2.801c0 1.546 1.268 2.8 2.833 2.8 1.564-.001 2.831-1.254 2.833-2.8 0-1.547-1.268-2.801-2.833-2.801-1.565 0-2.833 1.254-2.833 2.8zm1.133 0c0-.928.761-1.68 1.7-1.68s1.7.752 1.7 1.68a1.69 1.69 0 01-1.7 1.68 1.69 1.69 0 01-1.7-1.68zm1.133 0c0 .309.254.56.567.56a.564.564 0 00.567-.56c0-.31-.254-.56-.567-.56a.563.563 0 00-.567.56z" fill="#2682D6"/></svg>