<svg width="55" height="56" fill="none" xmlns="http://www.w3.org/2000/svg"><rect opacity=".6" y=".5" width="55" height="55" rx="24" fill="#F1C1C9"/><path fill-rule="evenodd" clip-rule="evenodd" d="M36.735 13.99l-9.002-3.94a.6.6 0 00-.48 0l-9.002 3.94a.6.6 0 00-.36.55v9.42a6.608 6.608 0 002.737 5.345l6.221 4.486c.384.278.904.278 1.288 0l6.222-4.486a6.608 6.608 0 002.736-5.345v-9.42a.6.6 0 00-.36-.55zm-.84 9.97a5.405 5.405 0 01-2.239 4.372l-6.163 4.444-6.163-4.444a5.405 5.405 0 01-2.239-4.372v-9.028l8.402-3.677 8.402 3.677v9.028zm-8.642-11.29l-6.6 2.89a.6.6 0 00-.361.55v7.851a4.2 4.2 0 001.74 3.398l5.11 3.686a.6.6 0 00.703 0l5.11-3.686a4.2 4.2 0 001.74-3.398V16.11a.6.6 0 00-.36-.55l-6.601-2.89a.6.6 0 00-.48 0zm6.242 3.832v7.459a3 3 0 01-1.242 2.425l-4.76 3.432-4.758-3.432a3 3 0 01-1.243-2.425v-7.46l6.002-2.625 6 2.626zM13.164 26.888l1.298 3.032a2.761 2.761 0 013.28.17 11.874 11.874 0 003.435 2.205 4.32 4.32 0 012 1.459 6.286 6.286 0 011.316 3.93V38.8a1.2 1.2 0 011.2 1.2v4.8a1.2 1.2 0 01-1.2 1.2H17.89a1.2 1.2 0 01-1.2-1.2V40c0-.303.117-.595.325-.816l-3.698-3.698a6.373 6.373 0 01-1.303-1.88l-2.352-5.173a1.912 1.912 0 113.5-1.545zM17.89 44.8h6.602V40H17.89v4.8zm5.402-7.116a5.09 5.09 0 00-1.053-3.181 3.152 3.152 0 00-1.443-1.07 12.798 12.798 0 01-3.829-2.423 1.56 1.56 0 00-1.944-.033c.217.324.465.625.74.9l2.742 2.742a.6.6 0 11-.849.848l-2.741-2.741a7.08 7.08 0 01-1.514-2.235l-1.342-3.13a.712.712 0 00-1.255-.106.713.713 0 00-.05.682l2.352 5.172a5.19 5.19 0 001.06 1.528L18.33 38.8h4.963v-1.116zm-.6 4.116h-.6a.6.6 0 100 1.2h.6a.6.6 0 000-1.2zm22.631-13.367l-2.352 5.172a6.373 6.373 0 01-1.302 1.88l-3.699 3.7c.208.22.325.512.325.815v4.8a1.2 1.2 0 01-1.2 1.2h-6.601a1.2 1.2 0 01-1.2-1.2V40a1.2 1.2 0 011.2-1.2v-1.116a6.286 6.286 0 011.315-3.932 4.321 4.321 0 012-1.459 11.87 11.87 0 003.436-2.204 2.768 2.768 0 013.283-.18l1.295-3.021a1.913 1.913 0 113.5 1.545zM30.494 44.8h6.602V40h-6.601v4.8zm1.2-6h4.963l4.162-4.162a5.19 5.19 0 001.059-1.528l2.352-5.173a.713.713 0 10-1.305-.577l-1.342 3.131a7.078 7.078 0 01-1.514 2.235l-2.741 2.742a.6.6 0 01-.849-.849l2.742-2.741c.277-.277.526-.58.743-.906a1.56 1.56 0 00-1.947.038 12.79 12.79 0 01-3.83 2.424 3.154 3.154 0 00-1.44 1.07 5.09 5.09 0 00-1.052 3.18V38.8zm1.2 3h-.6a.6.6 0 000 1.2h.6a.6.6 0 000-1.2zm-9.482-18.96a.6.6 0 01.84-.12l1.893 1.42 4.45-6.673a.6.6 0 01.998.666l-4.801 7.2a.6.6 0 01-.86.147l-2.4-1.8a.6.6 0 01-.12-.84z" fill="#D62642"/></svg>