<svg width="413" height="362" fill="none" xmlns="http://www.w3.org/2000/svg"><path opacity=".1" d="M180.386 49.395c18.538-6.894 41.106-.965 60.379 7.683 60.531 27.167 104.629 78.737 139.666 131.276 12.685 19.025 24.735 38.886 29.504 60.124 9.71 43.226-15.616 87.976-58.688 103.658-14.648 5.338-30.74 7.527-46.856 8.746-28.659 2.172-58.332 1.31-86.76-6.734-20.275-5.749-39.453-14.996-57.847-25.212-51.371-28.547-98.285-65.618-132.065-110.902-14.816-19.862-27.35-42.253-27.71-65.17-.362-22.917 14.564-45.945 39.123-49.841 10.154-1.61 20.894.065 31.372 1.79 15.427 2.542 31.063 5.215 46.314 4.106 15.756-1.154 36.247-7.313 39.12-22.362 3.041-16.158 5.935-30.276 24.448-37.162z" fill="#008EFF"/><path d="M359.654 87.569a3 3 0 01-3 2.998h-9.551a3 3 0 01-3-3v-9.33a3 3 0 013-3h9.558a3 3 0 013 3.002l-.007 9.33zm-.227-20.116h-12.099c-1.657 0-3.017-1.361-2.871-3.012 1.826-20.719 22.503-20.083 22.503-34.488 0-8.302-6.791-14.952-15.088-14.952-7.251 0-13.35 5.477-14.772 12.21-.343 1.62-1.657 2.978-3.313 2.978h-9.093c-1.655 0-3.013-1.343-2.851-2.99a30.154 30.154 0 018.678-18.372A30.117 30.117 0 01351.872 0c16.666 0 30.173 13.303 30.173 29.953 0 18.84-22.619 20.989-22.629 37.489 0 .006.005.011.011.011z" fill="#1ECE7A"/><path opacity=".1" d="M115.382 201.387h-7.322v-7.235h7.322v7.235zm-.111-10.881h-7.1c0-11.21 10.65-10.557 10.65-17.657a7.079 7.079 0 00-2.092-4.993 7.07 7.07 0 00-5.008-2.049 7.255 7.255 0 00-7.084 7.145h-7.1a14.219 14.219 0 014.203-9.914 14.198 14.198 0 0119.921-.077 14.218 14.218 0 014.281 9.88c-.021 8.869-10.671 9.879-10.671 17.648v.017zm218.305 56.459h-7.322v-7.215h7.322v7.215zm-.107-10.878h-7.1c0-11.214 10.65-10.557 10.65-17.657a7.059 7.059 0 00-2.092-4.991 7.052 7.052 0 00-5.008-2.047 7.251 7.251 0 00-7.12 7.153h-7.1a14.212 14.212 0 014.203-9.913 14.199 14.199 0 0119.921-.078 14.215 14.215 0 014.28 9.881c.012 8.869-10.634 9.883-10.634 17.652zM204.53 162.67h-5.306v-5.219h5.306v5.219zm-.078-7.888h-5.146c0-8.123 7.719-7.65 7.719-12.791a5.135 5.135 0 00-1.517-3.617 5.119 5.119 0 00-3.629-1.483 5.26 5.26 0 00-5.147 5.182h-5.146a10.298 10.298 0 0110.252-10.34 10.294 10.294 0 0110.333 10.258c-.008 6.426-7.719 7.161-7.719 12.791zm90.712 15.254h-3v-2.956h3v2.956zm-.045-4.455h-2.926c0-4.591 4.363-4.324 4.363-7.231a2.887 2.887 0 00-.853-2.044 2.865 2.865 0 00-2.053-.83 2.972 2.972 0 00-2.91 2.927h-2.909a5.82 5.82 0 019.862-4.056 5.824 5.824 0 011.772 4.011c.017 3.61-4.346 4.041-4.346 7.223zm35.912 158.958h-3v-2.957h3v2.957zm-.045-4.456h-2.91c0-4.595 4.367-4.324 4.367-7.231a2.896 2.896 0 00-2.91-2.874 2.964 2.964 0 00-2.91 2.928h-2.909a5.82 5.82 0 019.862-4.057 5.82 5.82 0 011.772 4.011c.017 3.626-4.346 4.041-4.346 7.223h-.016z" fill="#008EFF"/><path d="M355.936 132.07a21.136 21.136 0 00-21.145-9.965v15.138h9.187l7.19-1.82 4.768-3.353z" fill="#4C4981"/><path opacity=".1" d="M355.936 132.07a21.136 21.136 0 00-21.145-9.965v15.138h9.187l7.19-1.82 4.768-3.353z" fill="#000"/><path d="M334.102 126.114l11.26 7.892s.095-1.576.381-3.734c.55-4.158 1.741-5.877 4.536-11.394 4.88-9.632 18.463-4.214 25.766-23.868-13.216-3.192-33.305 12.168-33.305 12.168s-1.29.445-3.352 4.708c-1.057 2.242-2.506 6.061-3.595 9.182a134.352 134.352 0 00-1.691 5.046z" fill="#F6C2B2"/><path d="M244.146 138.269l-1.279-.603-3.595 4.105 2.939 6.273 5.012-2.01-1.163-5.015-1.914-2.75z" fill="#4C4981"/><path d="M207.14 169.191l2.22 2.401 1.449 1.566 8.458 9.097 21.855 2.465 11.63-3.11 2.876-.772s0-5.84-.518-12.843c-.74-8.981-2.506-19.888-6.724-22.86a16.808 16.808 0 01-4.917-6.231 35.145 35.145 0 01-2.115-5.226c-.084-.233-.148-.455-.222-.688a58.514 58.514 0 01-2.051-9.595s-2.791-1.544-6.671-3.343c-10.119-4.728-27.596-11.255-21.517 3.343a57.18 57.18 0 012.284 6.559c.095.328.18.656.254.973 2.03 8.125.687 13.055-.825 15.773-.255.471-.549.92-.877 1.344a7.068 7.068 0 01-1.47 1.491l-2.516 15.985-.212 1.322-.391 2.349z" fill="#F6C2B2"/><path opacity=".1" d="M210.883 124.179c1.152 2.771-.561-2.264 0 0 4.61 3.279 15.468 12.62 21.569 12.62 4.123 0 5.36-.751 8.892-2.348a57.674 57.674 0 01-2.273-10.272s-36.594-20.184-28.188 0z" fill="#000"/><path d="M201.568 107.179a28.229 28.229 0 007.245 18.862 28.205 28.205 0 0017.993 9.182c.973.095 1.956.158 2.95.158a28.175 28.175 0 0015.66-4.753c4.636-3.099 5.04-8.127 7.173-13.28 2.134-5.153 4.914-3.472 3.826-8.942-1.087-5.471-2.785-17.226-6.727-21.17a28.173 28.173 0 00-30.719-6.114 28.195 28.195 0 00-17.401 26.057z" fill="#F6C2B2"/><path opacity=".1" d="M197.56 232.198l4.018 10.483s3.267.138 8.364.296c17.202.55 55.107 1.249 56.798-3.173.38-1.122.58-2.297.593-3.481.222-6.738-2.919-17.084-2.919-17.084s-1.808-20.703-1.808-21.602c0-.899 1.555-15.403 1.555-15.403l-3.109-11.636-8.659-6.083s-3.881 5.956-6.207 6.464c-2.326.507-5.434 3.374-5.434 3.374s-7.624 4.655-10.087 2.063c-2.464-2.592-21.59-13.974-21.59-13.974l-10.087 11.128-1.428 58.628z" fill="#000"/><path d="M197.56 233.805l4.018 10.473s3.267.148 8.364.307h.497c2.199.074 4.715.148 7.401.201 13.671.317 32.502.402 42.345-1.058 3.701-.529 6.122-1.29 6.524-2.327a9.319 9.319 0 00.465-1.925c.063-.487.106-1.058.127-1.555.222-6.739-2.918-17.085-2.918-17.085s-1.808-20.703-1.808-21.602c0-.899 1.554-15.402 1.554-15.402l-3.109-11.637-5.952-4.168-2.707-1.904a40.729 40.729 0 01-2.971 3.914 7.912 7.912 0 01-3.235 2.549c-2.337.519-5.435 3.375-5.435 3.375s-7.623 4.655-10.087 2.063c-1.871-1.978-13.502-9.098-18.873-12.346a188.952 188.952 0 00-2.717-1.629l-1.354 1.503-8.733 9.626-1.396 58.627z" fill="#fff"/><path opacity=".1" d="M334.102 126.114l11.26 7.892s.095-1.577.381-3.735c-5.561-2.348-8.945-7.542-9.917-9.203-1.036 2.814-1.724 5.046-1.724 5.046z" fill="#000"/><path d="M294.538 152.899l2.453-.656s4.018 4.231 6.344 4.792c2.326.561 7.232 3.745 7.232 3.745l5.699 4.528s4.229.656 2.971-2.328c-1.258-2.983 2.326-6.728 2.326-6.728s7.242-14.873 7.242-17.983c0-3.111 5.985-16.165 5.985-16.165s7.507 14.62 21.209 9.965c0 0-9.959 22.374-10.213 27.939-.254 5.564-6.852 21.083-6.852 21.083s-2.463 11.52-15.775 10.875c0 0-18.365 3.417-22.372 0-4.008-3.417-7.624-6.104-9.516-6.495-1.893-.392-3.616-2.582-3.616-2.582v-15.381l6.883-14.609z" fill="#4C4981"/><path opacity=".1" d="M317.555 167.509s-3.235 12.038-1.163 13.329l1.163-13.329zm-107.613 77.023c17.202.55 55.107 1.238 56.798-3.173.38-1.122.58-2.297.593-3.481l-56.197 2.962-1.194 3.692z" fill="#000"/><path d="M190.582 305.159l2.199 4.655s.307 1.385.698 3.586c.825 4.739 2.115 13.287 1.629 20.099-.645 9.965 0 12.751 0 12.751s21.263 9.823 56.815 14.22c14.439 1.786 27.983 1.515 27.983 1.515s-2.698-18.394 1.447-26.158c2.823-5.29 4.81-28.901 4.874-44.431 0-7.162-.36-12.589-1.258-13.689-2.845-3.491-14.993-38.422-14.993-38.422l-2.77.149-7.401.391-42.081 2.221-6.609.35-.698 2.115-19.835 60.648z" fill="#444053"/><path d="M169.638 289.629l-.391 4.147s20.838-6.792 19.781-15.138c-1.057-8.347 0-7.405 0-7.405l-16.747 1.417-2.643 16.979z" fill="#4C4981"/><path opacity=".1" d="M169.638 289.629l-.391 4.147s20.838-6.792 19.781-15.138c-1.057-8.347 0-7.405 0-7.405l-16.747 1.417-2.643 16.979zM303.334 176.3a9.338 9.338 0 00-1.607 2.549 15.416 15.416 0 00.117 8.008l3.341-8.061c.581-1.375 1.163-2.75 1.86-4.062.307-.56 2.231-2.898 2.009-3.385-.592-1.375-5.096 4.179-5.72 4.951zm-58.194-31.959s-.254 11.912 1.681 17.349c.613 1.693 1.564 4.813 2.601 8.315 1.131 3.882 2.368 8.23 3.32 11.637.951 3.406 1.586 5.691 1.586 5.691s4.366 35.587 5.498 52.544c0 .297 0 .603.063.889.063.952.169 1.947.328 2.973 2.516 16.841 17.033 42.812 21.907 44.885a14.521 14.521 0 014.103 2.825c0-7.162-.36-12.589-1.258-13.689-2.845-3.491-14.993-38.422-14.993-38.422l-2.77.148c.063-.487.105-1.058.127-1.555.222-6.739-2.919-17.085-2.919-17.085s-1.808-20.702-1.808-21.601c0-.9 1.555-15.403 1.555-15.403l-3.109-11.637-5.953-4.168c-.74-8.981-2.505-19.888-6.724-22.86a16.808 16.808 0 01-4.917-6.231c-.835.116.688-.624.688-.624l.994 6.019z" fill="#000"/><path d="M242.866 137.666a7.693 7.693 0 016.545.741c2.982 2.115 8.797 1.935 10.351 1.555 1.555-.381 17.71-2.465 19.032-1.947 1.321.518 3.88-1.809 5.561 1.301s2.453 4.782 4.134 5.554c1.682.772 4.663 3.237 4.23 3.756-.434.518 4.229 3.617 4.229 3.617l-9.431 30.679s6.079 38.802 9.05 42.166c2.971 3.364 29.351 46.959 19.909 54.724a187.87 187.87 0 01-23.662 15.868c-1.057.519-4.779-6.463-9.949-8.664-5.171-2.2-21.21-31.313-22.204-47.868-.994-16.556-5.561-53.423-5.561-53.423s-5.562-20.184-7.497-25.622c-1.935-5.437-1.681-17.349-1.681-17.349l-3.056-5.088z" fill="#4C4981"/><path opacity=".1" d="M190.582 305.159l2.199 4.654s.307 1.386.698 3.586a1.975 1.975 0 001.058-.476c3.235-2.591 22.203-22.12 23.144-39.458.666-12.79.349-23.813.138-28.721-.064-1.545-.127-2.476-.127-2.677 0 0-14.739-17.857-13.058-24.183 1.681-6.326 5.561-40.199 5.561-40.199l.571-4.443.984-7.511 2.347-18.174-2.432.571a7.026 7.026 0 01-1.47 1.492l-2.516 15.984-8.733 9.627-1.428 58.606 4.018 10.473s3.267.148 8.363.307h.497l-19.814 60.542z" fill="#000"/><path d="M182.441 208.417s3.616-1.428 3.87 0 .909 4.517.909 4.517-.645 7.511 2.115 10.483c2.759 2.973 3.172 15.519 3.172 15.519s4.356 12.42 2.294 16.302c-.751 1.407-1.914 8.463-3.077 16.926-.74 5.289-1.469 11.097-2.114 16.408-1.174 9.647-2.051 17.634-2.051 17.634s2.336 8.537 5.572 5.946c3.235-2.592 22.203-22.121 23.134-39.459.634-12.176.38-22.755.169-27.97a133.929 133.929 0 00-.169-3.459s-14.739-17.857-13.058-24.194c1.681-6.337 5.561-40.199 5.561-40.199l.677-5.236.729-5.628.17-1.238 2.336-17.984c-.412.095-14.918 3.375-16.832 5.29-1.914 1.914-13.745 4.654-13.745 4.654a10.337 10.337 0 00-4.697 2.764 10.336 10.336 0 00-2.641 4.768c-.116.36-.201.741-.285 1.132-1.555 7.511-1.058 8.41-2.115 9.711-1.057 1.302 10.076 33.313 10.076 33.313z" fill="#4C4981"/><path opacity=".1" d="M189.525 288.56c5.287-1.057 13.132-3.501 12.952-8.896-.159-5.046-6.227-6.866-10.826-7.511-.74 5.268-1.47 11.097-2.126 16.407z" fill="#000"/><path d="M173.126 285.874c.212.455 1.057.846 2.263 1.195a60.954 60.954 0 008.596 1.407s17.974-1.428 17.72-9.584c-.19-5.85-8.31-7.405-12.867-7.754a29.292 29.292 0 00-3.035-.127s-13.449 13.191-12.677 14.863z" fill="#F6C2B2"/><path opacity=".1" d="M173.127 285.874c.211.455 1.057.846 2.262 1.195 4.684-6.273 11.218-14.323 14.421-15.032l-.972-.899a29.292 29.292 0 00-3.035-.127s-13.448 13.191-12.676 14.863z" fill="#000"/><path d="M177.651 174.237l-5.286.782a92.098 92.098 0 01-6.344 9.701 10.579 10.579 0 00-2.326 6.21s-7.761 11.509-10.214 12.8c-2.453 1.291-6.206 10.092-6.206 10.092s-6.08 4.009-6.08 8.537a75.92 75.92 0 01-1.163 11.256c-.137.645.899 8.674 3.489 12.694 2.591 4.02 5.181 12.885 5.044 14.472-.138 1.587 7.242 9.838 9.304 12.419a52.555 52.555 0 014.525 7.638l6.852 12.938s14.485-21.348 19.782-22.512c0 0-5.942-5.691-8.913-6.728-2.971-1.036-5.826-9.52-5.953-11.509-.127-1.989-2.717-8.41-5.424-9.521-2.706-1.111-4.144-2.327-2.981-4.147 1.163-1.819 0-5.289 0-5.289s7.633-10.092 8.67-15.868c1.036-5.776 8.014-9.701 8.014-9.701l4.007-9.838-8.797-24.426z" fill="#4C4981"/><path opacity=".1" d="M158.419 222.529a16.768 16.768 0 00-10.435-3.956c2.453.423 5.032.962 6.83 2.676.706.742 1.34 1.55 1.892 2.412.614.878 5.604 7.225 6.344 6.22 1.237-1.47-3.627-6.495-4.631-7.352zm16.293-58.353c.521.682 1.121 1.3 1.787 1.841 2.115 1.682 4.916 3.1 5.181 5.755a6.182 6.182 0 00.317 2.549c.677 1.164 2.337 1.058 3.658.836a6.351 6.351 0 003.098-1.142c1.385-1.185 1.512-3.301 2.569-4.793a6.521 6.521 0 015.287-2.338c1.977-.063 3.944.381 5.921.466a16.264 16.264 0 003.796-.254c.413-.063.822-.148 1.226-.254a15.75 15.75 0 002.58-.878c.431-.171.851-.369 1.258-.592a16.709 16.709 0 003.648-2.539c1.935-1.777 3.542-4.232 3.383-6.866-.095-1.618-.824-3.11-1.057-4.707-.793-4.57 2.242-8.886 5.53-12.155 1.311-1.301 2.706-2.56 4.018-3.883a19.36 19.36 0 004.726-6.749 20.121 20.121 0 00.846-8.463 58.44 58.44 0 01-.244-8.695c.973-10.283 9.749-18.164 18.525-22.448l.391-.202a28.185 28.185 0 00-20.87-9.668 28.17 28.17 0 00-21.119 9.11 28.198 28.198 0 00-3.739 33.033 28.178 28.178 0 007.823 8.782c.095.328.18.656.254.974 2.03 8.124.687 13.054-.825 15.773-.412.095-14.919 3.374-16.832 5.289-1.914 1.915-13.745 4.655-13.745 4.655a10.337 10.337 0 00-7.391 7.563z" fill="#000"/><path d="M253.017 81.208c-.582-.666-1.46-1.005-2.052-1.65-1.829-1.99 0-5.237-.666-7.86-.719-2.91-4.292-4.179-7.274-3.872-2.982.307-5.773 1.682-8.755 2.02-4.631.519-9.114-1.491-13.628-2.666-4.515-1.174-9.971-1.237-13.079 2.222-3.109 3.46-2.897 9.352-6.767 11.859-1.787 1.153-4.039 1.28-5.974 2.115a12.284 12.284 0 00-5.054 4.835 25.336 25.336 0 00-3.827 16.196c.327 3.068 1.216 6.051 1.575 9.119.365 3.186.15 6.411-.634 9.521-.814 3.173-2.58 6.601-5.741 7.616a9.696 9.696 0 00-2.115.73c-1.829 1.143-1.586 3.83-1.121 5.924l1.882 8.686c-1.808 1.375-4.62.782-6.344 2.232a5.293 5.293 0 00-1.48 2.327 12.7 12.7 0 003.796 13.9c2.114 1.682 4.916 3.1 5.181 5.745a5.955 5.955 0 00.317 2.549c.666 1.164 2.337 1.058 3.658.836a6.343 6.343 0 003.087-1.143c1.396-1.185 1.512-3.3 2.57-4.792a6.547 6.547 0 015.286-2.338c1.988-.063 3.944.381 5.932.476 4.584.188 9.06-1.43 12.466-4.506 1.945-1.788 3.542-4.232 3.394-6.876-.096-1.608-.825-3.111-1.058-4.708-.782-4.559 2.242-8.886 5.53-12.155 3.288-3.269 7.147-6.284 8.754-10.631 2.009-5.385.064-11.394.603-17.106.973-10.293 9.738-18.164 18.524-22.459 1.956-1.005 5.287-3.554 3.014-6.146z" fill="#444053"/></svg>