<svg width="553" height="517" fill="none" xmlns="http://www.w3.org/2000/svg"><path d="M461.715 140.301a64.668 64.668 0 01.953 30.093c-2.055 9.976-6.439 19.413-12.846 27.651-9.566 12.071-23.202 21.097-31.695 33.808-18.355 27.443-8.502 64.917-25.338 93.187-14.073 23.65-43.227 35.267-70.298 45.239-21.257 7.824-42.727 15.697-65.26 18.851-22.533 3.153-46.766 1.153-66.291-9.716-16.102-8.938-27.932-23.107-38.858-37.257-26.859-34.814-51.134-72.722-59.382-114.837-8.248-42.115 2.04-89.354 35.861-118.492 16.464-14.19 38.029-23.974 49.646-41.82 12.191-18.721 12.361-44.844 31.312-57.89 6.994-4.819 15.688-7.056 24.318-8.12 20.778-2.48 41.866 1.282 60.169 10.731 18.568 9.647 33.81 24.98 54.036 31.148 26.179 7.991 59.776 1.852 77.175 25.502 13.976 19.017 30.291 49.771 36.498 71.922z" fill="#F2F5F9"/><path fill-rule="evenodd" clip-rule="evenodd" d="M282.935 86.89c6.476 3.626 12.839 5.379 15.825 4.663 7.49-1.793 8.178-27.25 2.383-37.285-5.794-10.035-35.585-14.41-37.086 5.474-.521 6.901 2.597 13.06 7.205 18.085L263 113.607h24l-4.065-26.717z" fill="#F7C2B2"/><path fill-rule="evenodd" clip-rule="evenodd" d="M269.418 82.303c-3.012-12.451-11.593-20.939-10.283-26.504 1.311-5.565 6.986-6.921 6.986-6.921s2.936-11.034 18.935-9.386c11.043-1.029 20.164-4.502 27.741-1.647 5.68 4.127 2.646 17.497-9.974 19.911-3.877 0-4.777 1.838-11.247 4.07-3.08 1.062-4.406 6.587-4.406 6.587h-2.924s-4.257-6.557-8.395-4.819c-4.138 1.738-1.881 8.443-1.881 8.443l-1.441 10.266h-3.111z" fill="#191847"/><path d="M180 269.747c0-22.091 17.909-40 40-40h67c22.091 0 40 17.909 40 40v35.211c0 22.091-17.909 40-40 40h-67c-22.091 0-40-17.909-40-40v-35.211z" fill="#997659"/><path fill-rule="evenodd" clip-rule="evenodd" d="M426.159 340.312c-19.716-22.369-33.056-38.953-40.021-49.75-11.925-18.489-21.685-34.941-24.765-41.225-7.345-14.986 16.909-22.003 22.398-15.013 8.308 10.579 26.051 43.87 53.229 99.872l-10.841 6.116z" fill="#F6C2B2"/><path fill-rule="evenodd" clip-rule="evenodd" d="M405.193 326.482c-10.868 4.097-23.035-1.092-27.601-11.772l-28.527-66.718c-7.848-15.644 30.051-25.927 35.818-18.646 8.063 10.177 22.961 38.811 34.131 60.461 6.738 13.062-.068 31.492-13.821 36.675z" fill="#33B074"/><path fill-rule="evenodd" clip-rule="evenodd" d="M288.033 316.598c7.148-9.687 33.146-42.277 47.306-55.761 4.069-3.875 8.04-7.595 11.795-11.06 11.162-10.302 33.39 7.013 22.248 16.396-27.747 23.368-68.231 54.913-71.613 57.726-4.741 3.942-14.228-1.213-9.736-7.301z" fill="#F6C2B2"/><path fill-rule="evenodd" clip-rule="evenodd" d="M297.035 316.887c-4.008-2.149-9.324-4.019-11.97-.298-.06.085-.115.168-.166.248-2.303 3.706-.384 8.264 3.462 10.326 8.959 4.807 24.75 13.277 34.273 18.385 4.737 2.541 14.042-.173 9.67-3.232a389.482 389.482 0 01-3.572-2.527 23.109 23.109 0 01-4.758-4.58l-13.18-16.871c-1.24-1.587-3.638-1.879-5.354-.652-.778.557-1.74.827-2.687.699-1.616-.218-4.18-.673-5.718-1.498zm129.502 20.717c-4.65 0-10.537.944-10.537 5.594 0 4.289 3.989 7.335 8.278 7.335h40.095c5.335 0 11.692-6.689 6.392-7.292-1.735-.197-3.255-.38-4.485-.533a25.231 25.231 0 01-6.54-1.746l-20.62-8.541a3.75 3.75 0 00-4.863 1.944c-.382.86-1.071 1.549-1.953 1.876-1.516.562-3.988 1.363-5.767 1.363z" fill="#AFB9C5"/><path fill-rule="evenodd" clip-rule="evenodd" d="M336.014 252.33a1.202 1.202 0 00-.302-.074c-2.873-.435-46.114-6.987-61.131-9.447-28.735-4.708-37.658-18.817-33.421-49.262a2.963 2.963 0 012.942-2.542h51.437c.262 0 .48.022.732.094 11.921 3.42 88.734 35.26 89.883 35.736.037.015.032.014.068.031 9.467 4.418 7.696 17.335 5.958 21.596-.096.233-38.467 61.258-46.66 74.288-.865 1.376-2.642 1.77-4.041.942l-38.942-23.05a3 3 0 01-.771-4.509l33.979-40.512c.133-.159.25-.33.336-.518.306-.67.946-2.345-.067-2.773z" fill="#36C982"/><path fill-rule="evenodd" clip-rule="evenodd" d="M383.082 148.851l-22.357 30.34-12.419-13.117 24.69-19.612c3.002-3.97 5.335-7.47 7.159-10.207 2.924-4.386 4.54-6.811 5.51-6.069 1.315 1.006.738 2.51.207 3.898-.424 1.107-.82 2.14-.207 2.787.892.942 3.201-.293 6.13-1.86 1.609-.861 3.404-1.821 5.255-2.577 5.222-2.13 4.495.597 3.614 2.114-4.329 4.83-10.189 9.598-17.582 14.303zM221 173.132l-20.492-3.777c-13.897 34.033-22.182 52.683-24.856 55.949-1.96 2.396-14.049 8.566-22.232 11.861-3.285 1.323-2.579 3.902-1.616 4.727 6.076 5.204 11.725 3.38 17.874 1.394 1.781-.575 3.603-1.163 5.489-1.598 4.883-1.127 6.369 1.206 7.773 3.411 1.244 1.952 2.423 3.804 5.839 3.065-.155-.623-.346-1.321-.552-2.074-1.332-4.869-3.296-12.05-.382-16.222 1.495-2.141 12.547-21.053 33.155-56.736z" fill="#F6C2B2"/><path d="M378.759 146.075a4.534 4.534 0 00-.121 3.644c.471 1.182 1.42 2.146 2.645 2.689a28.183 28.183 0 0010.279 2.481c2.429.524 5.769-1.232 7.478-4.534 1.708-3.301 10.252-19.442 13.765-28.088a4.617 4.617 0 00-.121-3.894 4.975 4.975 0 00-1.276-1.595 5.424 5.424 0 00-1.852-.996l-10.372-2.087a5.595 5.595 0 00-3.729.217c-1.172.496-2.107 1.377-2.624 2.472l-14.072 29.691z" fill="#3D3D54"/><path d="M409.773 120.57l-15.309 30.07a1.85 1.85 0 01-.918.794c-.395.16-.835.19-1.25.087l-9.465-3.139c-.361-.12-.756-.174-1.072-.379a1.214 1.214 0 01-.382-.393 1.112 1.112 0 01-.06-1.033l14.35-29.155c.2-.354.524-.634.918-.794.394-.16.835-.19 1.25-.087l11.001 2.382c.19.031.37.103.527.208.156.106.284.244.374.402a1.117 1.117 0 01.036 1.037z" fill="#C3DBEE"/><path fill-rule="evenodd" clip-rule="evenodd" d="M276.606 103.68c.003-3.218 2.411-5.93 5.602-6.438 1.983-.316 4.009.252 5.383 1.691 17.22 18.051 24.783 55.787 36.823 60.965 10.711 4.607 19.131-.471 35.372-6.408 3.468-1.268 7.307-.693 10.288 1.42 5.57 3.948 6.435 11.936 1.204 16.451-22.253 19.209-50.919 27.321-64.618 19.629-23.522-13.206-30.079-58.26-30.054-87.31z" fill="#446EC1"/><path fill-rule="evenodd" clip-rule="evenodd" d="M239 199.086h76.511c3.497 0 2.838-4.69 2.332-7.057-5.832-27.316-28.602-56.762-28.602-95.647l-22.069-3.215c-18.255 27.277-24.567 60.861-28.172 105.919z" fill="#F2F6F9"/><path fill-rule="evenodd" clip-rule="evenodd" d="M266.722 93.167c-.638 0-1.269.168-1.821.488-46.11 26.687-75.072 67.027-86.885 121.019-1.241 5.672 2.591 11.135 8.304 12.175 3.56.648 7.219-.549 9.559-3.31 9.2-10.849 20.074-26.63 32.625-47.344.415-.685 1.517-.204 1.299.567-6.277 22.165 11.791 41.836 34.828 41.836 15.913 0 30.037-9.911 29.64-25.819-.835-33.466-14.043-80.41-18.401-95.062-.814-2.735-3.324-4.55-6.177-4.55-.146 0-.291.005-.435.014-.838.056-1.696-.014-2.536-.014z" fill="#5079CA"/><g filter="url(#filter0_d)"><path d="M505 381a5 5 0 00-5-5H328.619l-18.068-17-.636 17H290a5 5 0 00-5 5v71a5 5 0 005 5h210a5 5 0 005-5v-71z" fill="#fff"/></g><path d="M304.062 401c2.881 0 4.506-1.791 4.506-4.746 0-2.936-1.625-4.709-4.376-4.709h-3.047V401h2.917zm-1.772-1.016v-7.423h1.828c2.216 0 3.342 1.403 3.342 3.693 0 2.308-1.126 3.73-3.471 3.73h-1.699zm10.932 1.164c1.92 0 3.213-1.459 3.213-3.657 0-2.215-1.293-3.674-3.213-3.674-1.921 0-3.213 1.459-3.213 3.674 0 2.198 1.292 3.657 3.213 3.657zm0-.979c-1.459 0-2.124-1.256-2.124-2.678 0-1.421.665-2.696 2.124-2.696 1.458 0 2.123 1.275 2.123 2.696 0 1.422-.665 2.678-2.123 2.678zm7.849.979c1.44 0 2.493-.72 2.825-1.791l-1.053-.296c-.277.739-.918 1.108-1.772 1.108-1.279 0-2.161-.826-2.212-2.345h5.148v-.462c0-2.64-1.57-3.545-3.047-3.545-1.92 0-3.195 1.514-3.195 3.693 0 2.179 1.256 3.638 3.306 3.638zm-2.212-4.266c.074-1.103.855-2.087 2.101-2.087 1.182 0 1.939.887 1.939 2.087h-4.04zm11.828-1.385c-.342-1.006-1.108-1.68-2.511-1.68-1.496 0-2.604.849-2.604 2.049 0 .979.581 1.635 1.883 1.939l1.182.277c.716.167 1.053.508 1.053.998 0 .609-.647 1.108-1.662 1.108-.891 0-1.45-.384-1.644-1.145l-1.034.258c.254 1.205 1.247 1.847 2.696 1.847 1.648 0 2.77-.9 2.77-2.124 0-.988-.618-1.611-1.883-1.92l-1.053-.259c-.84-.208-1.219-.489-1.219-1.034 0-.609.647-1.052 1.515-1.052.951 0 1.343.526 1.532 1.015l.979-.277zm5.425 5.503h1.09v-7.091h-1.09V401zm.554-8.273c.425 0 .776-.332.776-.738 0-.407-.351-.739-.776-.739-.424 0-.775.332-.775.739 0 .406.351.738.775.738zm5.615 1.182h-1.514v-1.699h-1.09v1.699h-1.071v.923h1.071v4.432c0 1.237.998 1.828 1.921 1.828.406 0 .665-.074.812-.129l-.221-.979c-.092.019-.24.056-.48.056-.48 0-.942-.148-.942-1.071v-4.137h1.514v-.923zm7.382 7.257c1.237 0 1.883-.665 2.105-1.126h.055v.96h1.09v-4.672c0-2.253-1.717-2.511-2.622-2.511-1.071 0-2.29.369-2.844 1.662l1.034.369c.24-.517.808-1.071 1.847-1.071 1.001 0 1.495.531 1.495 1.44v.037c0 .527-.535.48-1.828.647-1.315.17-2.751.461-2.751 2.086 0 1.385 1.071 2.179 2.419 2.179zm.166-.978c-.868 0-1.496-.388-1.496-1.145 0-.831.757-1.09 1.607-1.201.462-.055 1.699-.184 1.883-.406v.997c0 .887-.701 1.755-1.994 1.755zm6.162-8.643h-1.09V401h1.09v-9.455zm4.968 9.603c1.441 0 2.493-.72 2.826-1.791l-1.053-.296c-.277.739-.919 1.108-1.773 1.108-1.278 0-2.16-.826-2.211-2.345h5.148v-.462c0-2.64-1.57-3.545-3.047-3.545-1.921 0-3.195 1.514-3.195 3.693 0 2.179 1.256 3.638 3.305 3.638zm-2.211-4.266c.074-1.103.854-2.087 2.101-2.087 1.181 0 1.939.887 1.939 2.087h-4.04zm6.805 4.118h1.089v-4.487c0-.96.757-1.662 1.792-1.662.29 0 .59.055.664.074v-1.108a10.657 10.657 0 00-.572-.019c-.85 0-1.588.48-1.847 1.182h-.074v-1.071h-1.052V401zm8.365-7.091h-1.514v-1.699h-1.09v1.699h-1.071v.923h1.071v4.432c0 1.237.997 1.828 1.921 1.828.406 0 .664-.074.812-.129l-.221-.979c-.093.019-.241.056-.481.056-.48 0-.941-.148-.941-1.071v-4.137h1.514v-.923zm5.997 9.732c.983 0 1.68-.522 2.086-1.607l3.02-8.106-1.192-.019-1.957 5.651h-.074l-1.957-5.651h-1.182l2.622 7.128-.203.554c-.388 1.062-.886 1.163-1.68.96l-.277.96c.11.056.424.13.794.13zm9.174-2.493c1.92 0 3.213-1.459 3.213-3.657 0-2.215-1.293-3.674-3.213-3.674-1.921 0-3.213 1.459-3.213 3.674 0 2.198 1.292 3.657 3.213 3.657zm0-.979c-1.459 0-2.124-1.256-2.124-2.678 0-1.421.665-2.696 2.124-2.696s2.123 1.275 2.123 2.696c0 1.422-.664 2.678-2.123 2.678zm9.345-2.068c0 1.329-1.016 1.939-1.828 1.939-.905 0-1.552-.665-1.552-1.699v-4.432h-1.089v4.506c0 1.809.96 2.677 2.29 2.677 1.071 0 1.772-.572 2.105-1.292h.074v1.2h1.089v-7.091h-1.089v4.192zm9.825-4.192h-1.515v-1.699h-1.089v1.699h-1.071v.923h1.071v4.432c0 1.237.997 1.828 1.92 1.828.407 0 .665-.074.813-.129l-.222-.979c-.092.019-.24.056-.48.056-.48 0-.942-.148-.942-1.071v-4.137h1.515v-.923zm4.443 7.239c1.921 0 3.213-1.459 3.213-3.657 0-2.215-1.292-3.674-3.213-3.674-1.92 0-3.213 1.459-3.213 3.674 0 2.198 1.293 3.657 3.213 3.657zm0-.979c-1.459 0-2.124-1.256-2.124-2.678 0-1.421.665-2.696 2.124-2.696s2.124 1.275 2.124 2.696c0 1.422-.665 2.678-2.124 2.678zm8.532.831h1.09v-7.091h-1.09V401zm.554-8.273c.425 0 .776-.332.776-.738 0-.407-.351-.739-.776-.739-.424 0-.775.332-.775.739 0 .406.351.738.775.738zm2.531 8.273h1.09v-4.487c0-.96.757-1.662 1.791-1.662.291 0 .591.055.665.074v-1.108a10.696 10.696 0 00-.573-.019c-.849 0-1.588.48-1.846 1.182h-.074v-1.071h-1.053V401zm4.837 0h1.09v-4.487c0-.96.757-1.662 1.791-1.662.291 0 .591.055.665.074v-1.108a10.696 10.696 0 00-.573-.019c-.849 0-1.588.48-1.846 1.182h-.074v-1.071h-1.053V401zm7.594.148c1.441 0 2.493-.72 2.826-1.791l-1.053-.296c-.277.739-.919 1.108-1.773 1.108-1.278 0-2.16-.826-2.211-2.345h5.148v-.462c0-2.64-1.57-3.545-3.047-3.545-1.921 0-3.195 1.514-3.195 3.693 0 2.179 1.256 3.638 3.305 3.638zm-2.211-4.266c.074-1.103.854-2.087 2.101-2.087 1.181 0 1.939.887 1.939 2.087h-4.04zm9.667 6.925c1.699 0 3.065-.776 3.065-2.604v-7.294h-1.052v1.127h-.111c-.24-.37-.683-1.219-2.068-1.219-1.791 0-3.029 1.422-3.029 3.601 0 2.216 1.293 3.471 3.01 3.471 1.385 0 1.829-.812 2.069-1.2h.092v1.44c0 1.182-.831 1.718-1.976 1.718-1.288 0-1.74-.679-2.031-1.071l-.868.609c.443.743 1.316 1.422 2.899 1.422zm-.037-3.896c-1.366 0-2.068-1.035-2.068-2.512 0-1.44.683-2.604 2.068-2.604 1.33 0 2.031 1.071 2.031 2.604 0 1.57-.72 2.512-2.031 2.512zm9.565-1.81c0 1.329-1.015 1.939-1.828 1.939-.904 0-1.551-.665-1.551-1.699v-4.432h-1.089v4.506c0 1.809.96 2.677 2.289 2.677 1.072 0 1.773-.572 2.106-1.292h.073v1.2h1.09v-7.091h-1.09v4.192zm4.175-6.556h-1.09V401h1.09v-9.455zm4.082 9.621c1.237 0 1.884-.665 2.105-1.126h.056v.96h1.089v-4.672c0-2.253-1.717-2.511-2.622-2.511-1.071 0-2.29.369-2.844 1.662l1.034.369c.24-.517.808-1.071 1.847-1.071 1.002 0 1.496.531 1.496 1.44v.037c0 .527-.536.48-1.829.647-1.315.17-2.751.461-2.751 2.086 0 1.385 1.071 2.179 2.419 2.179zm.166-.978c-.868 0-1.496-.388-1.496-1.145 0-.831.758-1.09 1.607-1.201.462-.055 1.699-.184 1.884-.406v.997c0 .887-.702 1.755-1.995 1.755zm5.073.812h1.089v-4.487c0-.96.757-1.662 1.791-1.662.291 0 .591.055.665.074v-1.108a10.693 10.693 0 00-.572-.019c-.85 0-1.588.48-1.847 1.182h-.074v-1.071h-1.052V401zm-161.21 14.497c-.342-1.006-1.108-1.68-2.511-1.68-1.496 0-2.604.849-2.604 2.049 0 .979.582 1.635 1.883 1.939l1.182.277c.716.167 1.053.508 1.053.998 0 .609-.647 1.108-1.662 1.108-.891 0-1.45-.384-1.644-1.145l-1.034.258c.254 1.205 1.247 1.847 2.696 1.847 1.648 0 2.77-.9 2.77-2.124 0-.988-.618-1.611-1.883-1.92l-1.053-.259c-.84-.208-1.219-.489-1.219-1.034 0-.609.647-1.052 1.515-1.052.951 0 1.343.526 1.532 1.015l.979-.277zm2.471 8.144c.983 0 1.68-.522 2.087-1.607l3.019-8.106-1.191-.019-1.958 5.651h-.074l-1.957-5.651h-1.182l2.622 7.128-.203.554c-.388 1.062-.886 1.163-1.68.96l-.277.96c.111.056.425.13.794.13zm11.57-8.144c-.342-1.006-1.108-1.68-2.511-1.68-1.496 0-2.604.849-2.604 2.049 0 .979.582 1.635 1.883 1.939l1.182.277c.716.167 1.053.508 1.053.998 0 .609-.647 1.108-1.662 1.108-.891 0-1.45-.384-1.644-1.145l-1.034.258c.254 1.205 1.247 1.847 2.696 1.847 1.648 0 2.77-.9 2.77-2.124 0-.988-.618-1.611-1.883-1.92l-1.053-.259c-.84-.208-1.219-.489-1.219-1.034 0-.609.647-1.052 1.515-1.052.951 0 1.343.526 1.532 1.015l.979-.277zm4.853-1.588H323.4v-1.699h-1.09v1.699h-1.071v.923h1.071v4.432c0 1.237.997 1.828 1.921 1.828.406 0 .665-.074.812-.129l-.221-.979c-.093.019-.24.056-.48.056-.481 0-.942-.148-.942-1.071v-4.137h1.514v-.923zm4.536 7.239c1.44 0 2.493-.72 2.825-1.791l-1.053-.296c-.277.739-.918 1.108-1.772 1.108-1.279 0-2.161-.826-2.212-2.345h5.148v-.462c0-2.64-1.57-3.545-3.047-3.545-1.921 0-3.195 1.514-3.195 3.693 0 2.179 1.256 3.638 3.306 3.638zm-2.212-4.266c.074-1.103.854-2.087 2.101-2.087 1.182 0 1.939.887 1.939 2.087h-4.04zm6.805 4.118h1.09v-4.432c0-1.039.757-1.773 1.606-1.773.826 0 1.403.541 1.403 1.348V421h1.108v-4.616c0-.915.573-1.589 1.57-1.589.776 0 1.44.411 1.44 1.459V421h1.09v-4.746c0-1.666-.896-2.437-2.161-2.437-1.015 0-1.759.466-2.123 1.2h-.074c-.351-.757-.97-1.2-1.902-1.2-.923 0-1.607.443-1.902 1.2h-.092v-1.108h-1.053V421zm15.103 0h1.052v-1.089h.13c.24.387.701 1.237 2.068 1.237 1.773 0 3.01-1.422 3.01-3.675 0-2.234-1.237-3.656-3.029-3.656-1.385 0-1.809.849-2.049 1.219h-.093v-3.491h-1.089V421zm1.071-3.545c0-1.589.702-2.66 2.031-2.66 1.385 0 2.068 1.164 2.068 2.66 0 1.514-.701 2.714-2.068 2.714-1.311 0-2.031-1.108-2.031-2.714zm9.828 3.693c1.441 0 2.493-.72 2.826-1.791l-1.053-.296c-.277.739-.919 1.108-1.773 1.108-1.278 0-2.16-.826-2.211-2.345h5.147v-.462c0-2.64-1.569-3.545-3.046-3.545-1.921 0-3.195 1.514-3.195 3.693 0 2.179 1.256 3.638 3.305 3.638zm-2.211-4.266c.074-1.103.854-2.087 2.101-2.087 1.181 0 1.938.887 1.938 2.087h-4.039zm7.894-.148c0-1.237.79-1.939 1.865-1.939 1.025 0 1.644.647 1.644 1.773V421h1.089v-4.506c0-1.823-.969-2.677-2.419-2.677-1.117 0-1.754.466-2.086 1.2h-.093v-3.472h-1.089V421h1.089v-4.266zm8.678 4.432c1.237 0 1.884-.665 2.105-1.126h.056v.96h1.089v-4.672c0-2.253-1.717-2.511-2.622-2.511-1.071 0-2.29.369-2.844 1.662l1.034.369c.24-.517.808-1.071 1.847-1.071 1.002 0 1.496.531 1.496 1.44v.037c0 .527-.536.48-1.829.647-1.315.17-2.751.461-2.751 2.086 0 1.385 1.071 2.179 2.419 2.179zm.166-.978c-.868 0-1.495-.388-1.495-1.145 0-.831.757-1.09 1.606-1.201.462-.055 1.699-.184 1.884-.406v.997c0 .887-.702 1.755-1.995 1.755zm10.617-6.279h-1.182l-1.957 5.651h-.074l-1.957-5.651h-1.182l2.622 7.091h1.108l2.622-7.091zm1.438 7.091h1.09v-7.091h-1.09V421zm.554-8.273c.425 0 .776-.332.776-.738 0-.407-.351-.739-.776-.739-.425 0-.776.332-.776.739 0 .406.351.738.776.738zm5.412 8.421c1.92 0 3.213-1.459 3.213-3.657 0-2.215-1.293-3.674-3.213-3.674-1.921 0-3.213 1.459-3.213 3.674 0 2.198 1.292 3.657 3.213 3.657zm0-.979c-1.459 0-2.124-1.256-2.124-2.678 0-1.421.665-2.696 2.124-2.696 1.458 0 2.123 1.275 2.123 2.696 0 1.422-.665 2.678-2.123 2.678zm4.876.831h1.089v-4.487c0-.96.757-1.662 1.792-1.662.29 0 .59.055.664.074v-1.108a10.657 10.657 0 00-.572-.019c-.85 0-1.588.48-1.847 1.182h-.074v-1.071h-1.052V421zm9.859-5.503c-.341-1.006-1.107-1.68-2.511-1.68-1.496 0-2.604.849-2.604 2.049 0 .979.582 1.635 1.884 1.939l1.182.277c.715.167 1.052.508 1.052.998 0 .609-.646 1.108-1.662 1.108-.891 0-1.449-.384-1.643-1.145l-1.034.258c.254 1.205 1.246 1.847 2.696 1.847 1.648 0 2.77-.9 2.77-2.124 0-.988-.619-1.611-1.884-1.92l-1.052-.259c-.841-.208-1.219-.489-1.219-1.034 0-.609.646-1.052 1.514-1.052.951 0 1.344.526 1.533 1.015l.978-.277zm8.51-1.588h-1.514v-1.699h-1.09v1.699h-1.071v.923h1.071v4.432c0 1.237.997 1.828 1.921 1.828.406 0 .664-.074.812-.129l-.222-.979c-.092.019-.24.056-.48.056-.48 0-.941-.148-.941-1.071v-4.137h1.514v-.923zm2.88 2.825c0-1.237.79-1.939 1.866-1.939 1.024 0 1.643.647 1.643 1.773V421h1.089v-4.506c0-1.823-.969-2.677-2.419-2.677-1.117 0-1.754.466-2.086 1.2h-.093v-3.472h-1.089V421h1.089v-4.266zm8.678 4.432c1.238 0 1.884-.665 2.105-1.126h.056v.96h1.089v-4.672c0-2.253-1.717-2.511-2.622-2.511-1.071 0-2.29.369-2.844 1.662l1.034.369c.241-.517.808-1.071 1.847-1.071 1.002 0 1.496.531 1.496 1.44v.037c0 .527-.536.48-1.828.647-1.316.17-2.752.461-2.752 2.086 0 1.385 1.071 2.179 2.419 2.179zm.166-.978c-.867 0-1.495-.388-1.495-1.145 0-.831.757-1.09 1.606-1.201.462-.055 1.699-.184 1.884-.406v.997c0 .887-.702 1.755-1.995 1.755zm8.157-6.279h-1.515v-1.699h-1.089v1.699h-1.071v.923h1.071v4.432c0 1.237.997 1.828 1.92 1.828.407 0 .665-.074.813-.129l-.222-.979c-.092.019-.24.056-.48.056-.48 0-.942-.148-.942-1.071v-4.137h1.515v-.923zm8.379 0h-1.515v-1.699h-1.089v1.699h-1.071v.923h1.071v4.432c0 1.237.997 1.828 1.92 1.828.407 0 .665-.074.813-.129l-.222-.979c-.092.019-.24.056-.48.056-.48 0-.942-.148-.942-1.071v-4.137h1.515v-.923zm2.88 2.825c0-1.237.79-1.939 1.865-1.939 1.025 0 1.644.647 1.644 1.773V421h1.089v-4.506c0-1.823-.969-2.677-2.419-2.677-1.117 0-1.754.466-2.086 1.2h-.093v-3.472h-1.089V421h1.089v-4.266zm6.591 4.266h1.09v-4.487c0-.96.757-1.662 1.791-1.662.291 0 .591.055.665.074v-1.108a10.696 10.696 0 00-.573-.019c-.849 0-1.588.48-1.846 1.182h-.074v-1.071h-1.053V421zm7.595.148c1.44 0 2.492-.72 2.825-1.791l-1.053-.296c-.277.739-.918 1.108-1.772 1.108-1.279 0-2.161-.826-2.212-2.345h5.148v-.462c0-2.64-1.57-3.545-3.047-3.545-1.921 0-3.195 1.514-3.195 3.693 0 2.179 1.256 3.638 3.306 3.638zm-2.212-4.266c.074-1.103.854-2.087 2.101-2.087 1.182 0 1.939.887 1.939 2.087h-4.04zm8.892 4.284c1.237 0 1.883-.665 2.105-1.126h.055v.96h1.09v-4.672c0-2.253-1.718-2.511-2.623-2.511-1.071 0-2.289.369-2.843 1.662l1.034.369c.24-.517.808-1.071 1.846-1.071 1.002 0 1.496.531 1.496 1.44v.037c0 .527-.535.48-1.828.647-1.316.17-2.751.461-2.751 2.086 0 1.385 1.071 2.179 2.419 2.179zm.166-.978c-.868 0-1.496-.388-1.496-1.145 0-.831.757-1.09 1.607-1.201.461-.055 1.698-.184 1.883-.406v.997c0 .887-.702 1.755-1.994 1.755zm8.156-6.279h-1.514v-1.699h-1.09v1.699h-1.071v.923h1.071v4.432c0 1.237.997 1.828 1.921 1.828.406 0 .664-.074.812-.129l-.221-.979c-.093.019-.24.056-.481.056-.48 0-.941-.148-.941-1.071v-4.137h1.514v-.923zm4.536 7.239c1.44 0 2.493-.72 2.825-1.791l-1.053-.296c-.277.739-.918 1.108-1.772 1.108-1.279 0-2.161-.826-2.212-2.345h5.148v-.462c0-2.64-1.57-3.545-3.047-3.545-1.921 0-3.195 1.514-3.195 3.693 0 2.179 1.256 3.638 3.306 3.638zm-2.212-4.266c.074-1.103.854-2.087 2.101-2.087 1.182 0 1.939.887 1.939 2.087h-4.04zm7.894-.148c0-1.237.767-1.939 1.81-1.939 1.011 0 1.625.661 1.625 1.773V421h1.09v-4.506c0-1.809-.965-2.677-2.401-2.677-1.071 0-1.736.48-2.068 1.2h-.092v-1.108h-1.053V421h1.089v-4.266zm-184.685 26.907c.983 0 1.68-.522 2.087-1.607l3.019-8.106-1.191-.019-1.958 5.651h-.074l-1.957-5.651h-1.182l2.622 7.128-.203.554c-.388 1.062-.886 1.163-1.68.96l-.277.96c.111.056.425.13.794.13zm9.174-2.493c1.92 0 3.213-1.459 3.213-3.657 0-2.215-1.293-3.674-3.213-3.674-1.92 0-3.213 1.459-3.213 3.674 0 2.198 1.293 3.657 3.213 3.657zm0-.979c-1.459 0-2.124-1.256-2.124-2.678 0-1.421.665-2.696 2.124-2.696s2.124 1.275 2.124 2.696c0 1.422-.665 2.678-2.124 2.678zm9.345-2.068c0 1.329-1.016 1.939-1.828 1.939-.905 0-1.551-.665-1.551-1.699v-4.432h-1.09v4.506c0 1.809.96 2.677 2.29 2.677 1.071 0 1.773-.572 2.105-1.292h.074v1.2h1.089v-7.091h-1.089v4.192zm3.085 2.899h1.089v-4.487c0-.96.757-1.662 1.792-1.662.29 0 .59.055.664.074v-1.108a10.657 10.657 0 00-.572-.019c-.85 0-1.588.48-1.847 1.182h-.074v-1.071h-1.052V441zm9.582-4.266c0-1.237.79-1.939 1.866-1.939 1.024 0 1.643.647 1.643 1.773V441h1.089v-4.506c0-1.823-.969-2.677-2.419-2.677-1.117 0-1.754.466-2.086 1.2h-.093v-3.472h-1.089V441h1.089v-4.266zm9.565 4.414c1.44 0 2.493-.72 2.825-1.791l-1.053-.296c-.277.739-.918 1.108-1.772 1.108-1.279 0-2.161-.826-2.212-2.345h5.148v-.462c0-2.64-1.57-3.545-3.047-3.545-1.921 0-3.195 1.514-3.195 3.693 0 2.179 1.256 3.638 3.306 3.638zm-2.212-4.266c.074-1.103.854-2.087 2.101-2.087 1.182 0 1.939.887 1.939 2.087h-4.04zm8.892 4.284c1.237 0 1.883-.665 2.105-1.126h.055v.96h1.09v-4.672c0-2.253-1.718-2.511-2.622-2.511-1.071 0-2.29.369-2.844 1.662l1.034.369c.24-.517.808-1.071 1.846-1.071 1.002 0 1.496.531 1.496 1.44v.037c0 .527-.535.48-1.828.647-1.316.17-2.751.461-2.751 2.086 0 1.385 1.071 2.179 2.419 2.179zm.166-.978c-.868 0-1.496-.388-1.496-1.145 0-.831.757-1.09 1.607-1.201.461-.055 1.699-.184 1.883-.406v.997c0 .887-.701 1.755-1.994 1.755zm6.162-8.643h-1.09V441h1.09v-9.455zm5.079 2.364h-1.514v-1.699h-1.09v1.699h-1.071v.923h1.071v4.432c0 1.237.997 1.828 1.921 1.828.406 0 .665-.074.812-.129l-.221-.979c-.093.019-.24.056-.48.056-.481 0-.942-.148-.942-1.071v-4.137h1.514v-.923zm2.881 2.825c0-1.237.789-1.939 1.865-1.939 1.025 0 1.643.647 1.643 1.773V441h1.09v-4.506c0-1.823-.97-2.677-2.419-2.677-1.118 0-1.755.466-2.087 1.2h-.092v-3.472h-1.09V441h1.09v-4.266zm12.334 4.432c1.237 0 1.883-.665 2.105-1.126h.055v.96h1.09v-4.672c0-2.253-1.718-2.511-2.622-2.511-1.071 0-2.29.369-2.844 1.662l1.034.369c.24-.517.808-1.071 1.847-1.071 1.001 0 1.495.531 1.495 1.44v.037c0 .527-.535.48-1.828.647-1.316.17-2.751.461-2.751 2.086 0 1.385 1.071 2.179 2.419 2.179zm.166-.978c-.868 0-1.496-.388-1.496-1.145 0-.831.757-1.09 1.607-1.201.461-.055 1.699-.184 1.883-.406v.997c0 .887-.701 1.755-1.994 1.755zm6.162-3.454c0-1.237.766-1.939 1.809-1.939 1.011 0 1.625.661 1.625 1.773V441h1.09v-4.506c0-1.809-.965-2.677-2.401-2.677-1.071 0-1.735.48-2.068 1.2h-.092v-1.108h-1.053V441h1.09v-4.266zm9.192 4.414c1.367 0 1.828-.85 2.069-1.237h.129V441h1.052v-9.455h-1.089v3.491h-.092c-.241-.37-.665-1.219-2.05-1.219-1.791 0-3.029 1.422-3.029 3.656 0 2.253 1.238 3.675 3.01 3.675zm.148-.979c-1.366 0-2.068-1.2-2.068-2.714 0-1.496.683-2.66 2.068-2.66 1.33 0 2.031 1.071 2.031 2.66 0 1.606-.72 2.714-2.031 2.714zm10.512.831h1.071l1.551-5.447h.111l1.551 5.447h1.071l2.16-7.091h-1.144l-1.533 5.411h-.074l-1.496-5.411h-1.163l-1.514 5.429h-.074l-1.533-5.429h-1.145l2.161 7.091zm11.688.148c1.44 0 2.492-.72 2.825-1.791l-1.053-.296c-.277.739-.918 1.108-1.772 1.108-1.279 0-2.161-.826-2.212-2.345h5.148v-.462c0-2.64-1.57-3.545-3.047-3.545-1.921 0-3.195 1.514-3.195 3.693 0 2.179 1.256 3.638 3.306 3.638zm-2.212-4.266c.074-1.103.854-2.087 2.101-2.087 1.182 0 1.939.887 1.939 2.087h-4.04zm7.894-5.337h-1.089V441h1.089v-9.455zm3.085 0h-1.089V441h1.089v-9.455zm6.058 4.894h-4.136v1.016h4.136v-1.016zM430.51 441h1.053v-1.089h.129c.24.387.702 1.237 2.068 1.237 1.773 0 3.01-1.422 3.01-3.675 0-2.234-1.237-3.656-3.028-3.656-1.385 0-1.81.849-2.05 1.219h-.092v-3.491h-1.09V441zm1.071-3.545c0-1.589.702-2.66 2.031-2.66 1.385 0 2.069 1.164 2.069 2.66 0 1.514-.702 2.714-2.069 2.714-1.311 0-2.031-1.108-2.031-2.714zm9.829 3.693c1.44 0 2.493-.72 2.825-1.791l-1.053-.296c-.277.739-.918 1.108-1.772 1.108-1.279 0-2.161-.826-2.212-2.345h5.148v-.462c0-2.64-1.57-3.545-3.047-3.545-1.921 0-3.195 1.514-3.195 3.693 0 2.179 1.256 3.638 3.306 3.638zm-2.212-4.266c.074-1.103.854-2.087 2.101-2.087 1.182 0 1.939.887 1.939 2.087h-4.04zm6.805 4.118h1.09v-7.091h-1.09V441zm.554-8.273c.425 0 .776-.332.776-.738 0-.407-.351-.739-.776-.739-.425 0-.776.332-.776.739 0 .406.351.738.776.738zm3.62 4.007c0-1.237.767-1.939 1.81-1.939 1.011 0 1.625.661 1.625 1.773V441h1.09v-4.506c0-1.809-.965-2.677-2.401-2.677-1.071 0-1.736.48-2.068 1.2h-.092v-1.108h-1.053V441h1.089v-4.266zm9.378 7.073c1.699 0 3.065-.776 3.065-2.604v-7.294h-1.053v1.127h-.11c-.24-.37-.684-1.219-2.069-1.219-1.791 0-3.028 1.422-3.028 3.601 0 2.216 1.293 3.471 3.01 3.471 1.385 0 1.828-.812 2.068-1.2h.093v1.44c0 1.182-.831 1.718-1.976 1.718-1.288 0-1.741-.679-2.032-1.071l-.867.609c.443.743 1.315 1.422 2.899 1.422zm-.037-3.896c-1.367 0-2.068-1.035-2.068-2.512 0-1.44.683-2.604 2.068-2.604 1.329 0 2.031 1.071 2.031 2.604 0 1.57-.72 2.512-2.031 2.512zm6.518-1.57h1.108v-.055c.019-1.145.314-1.644 1.127-2.152.812-.494 1.292-1.205 1.292-2.225 0-1.44-1.052-2.493-2.677-2.493-1.496 0-2.683.923-2.752 2.493h1.164c.069-1.089.831-1.533 1.588-1.533.868 0 1.569.573 1.569 1.478 0 .734-.42 1.26-.96 1.588-.905.549-1.445 1.085-1.459 2.844v.055zm.591 2.733a.834.834 0 00.831-.831.834.834 0 00-.831-.831.834.834 0 00-.831.831c0 .457.374.831.831.831z" fill="#262B35"/><g filter="url(#filter1_d)"><path d="M95 251a5 5 0 015-5h161.381l18.068-17 .636 17H300a5 5 0 015 5v51a5 5 0 01-5 5H100a5 5 0 01-5-5v-51z" fill="#fff"/></g><path d="M111.062 271c2.881 0 4.506-1.791 4.506-4.746 0-2.936-1.625-4.709-4.376-4.709h-3.047V271h2.917zm-1.772-1.016v-7.423h1.828c2.216 0 3.342 1.403 3.342 3.693 0 2.308-1.126 3.73-3.471 3.73h-1.699zm10.932 1.164c1.92 0 3.213-1.459 3.213-3.657 0-2.215-1.293-3.674-3.213-3.674-1.921 0-3.213 1.459-3.213 3.674 0 2.198 1.292 3.657 3.213 3.657zm0-.979c-1.459 0-2.124-1.256-2.124-2.678 0-1.421.665-2.696 2.124-2.696 1.458 0 2.123 1.275 2.123 2.696 0 1.422-.665 2.678-2.123 2.678zm7.849.979c1.44 0 2.493-.72 2.825-1.791l-1.053-.296c-.277.739-.918 1.108-1.772 1.108-1.279 0-2.161-.826-2.212-2.345h5.148v-.462c0-2.64-1.57-3.545-3.047-3.545-1.92 0-3.195 1.514-3.195 3.693 0 2.179 1.256 3.638 3.306 3.638zm-2.212-4.266c.074-1.103.855-2.087 2.101-2.087 1.182 0 1.939.887 1.939 2.087h-4.04zm11.828-1.385c-.342-1.006-1.108-1.68-2.511-1.68-1.496 0-2.604.849-2.604 2.049 0 .979.581 1.635 1.883 1.939l1.182.277c.716.167 1.053.508 1.053.998 0 .609-.647 1.108-1.662 1.108-.891 0-1.45-.384-1.644-1.145l-1.034.258c.254 1.205 1.247 1.847 2.696 1.847 1.648 0 2.77-.9 2.77-2.124 0-.988-.618-1.611-1.883-1.92l-1.053-.259c-.84-.208-1.219-.489-1.219-1.034 0-.609.647-1.052 1.515-1.052.951 0 1.343.526 1.532 1.015l.979-.277zm5.425 5.503h1.09v-7.091h-1.09V271zm.554-8.273c.425 0 .776-.332.776-.738 0-.407-.351-.739-.776-.739-.424 0-.775.332-.775.739 0 .406.351.738.775.738zm5.615 1.182h-1.514v-1.699h-1.09v1.699h-1.071v.923h1.071v4.432c0 1.237.998 1.828 1.921 1.828.406 0 .665-.074.812-.129l-.221-.979c-.092.019-.24.056-.48.056-.48 0-.942-.148-.942-1.071v-4.137h1.514v-.923zm7.382 7.257c1.237 0 1.883-.665 2.105-1.126h.055v.96h1.09v-4.672c0-2.253-1.717-2.511-2.622-2.511-1.071 0-2.29.369-2.844 1.662l1.034.369c.24-.517.808-1.071 1.847-1.071 1.001 0 1.495.531 1.495 1.44v.037c0 .527-.535.48-1.828.647-1.315.17-2.751.461-2.751 2.086 0 1.385 1.071 2.179 2.419 2.179zm.166-.978c-.868 0-1.496-.388-1.496-1.145 0-.831.757-1.09 1.607-1.201.462-.055 1.699-.184 1.883-.406v.997c0 .887-.701 1.755-1.994 1.755zm6.162-3.454c0-1.237.766-1.939 1.81-1.939 1.011 0 1.625.661 1.625 1.773V271h1.089v-4.506c0-1.809-.965-2.677-2.4-2.677-1.071 0-1.736.48-2.069 1.2h-.092v-1.108h-1.053V271h1.09v-4.266zm9.599-2.825h-1.514v-1.699h-1.09v1.699h-1.071v.923h1.071v4.432c0 1.237.997 1.828 1.921 1.828.406 0 .664-.074.812-.129l-.222-.979c-.092.019-.24.056-.48.056-.48 0-.941-.148-.941-1.071v-4.137h1.514v-.923zm1.639 7.091h1.089v-7.091h-1.089V271zm.554-8.273c.424 0 .775-.332.775-.738 0-.407-.351-.739-.775-.739-.425 0-.776.332-.776.739 0 .406.351.738.776.738zm5.411 8.421c1.57 0 2.604-.96 2.789-2.216h-1.09c-.203.775-.849 1.237-1.699 1.237-1.292 0-2.123-1.071-2.123-2.714 0-1.607.849-2.66 2.123-2.66.96 0 1.533.591 1.699 1.238h1.09c-.185-1.33-1.311-2.216-2.807-2.216-1.921 0-3.195 1.514-3.195 3.674 0 2.124 1.219 3.657 3.213 3.657zm4.381-.148h1.09v-7.091h-1.09V271zm.554-8.273c.425 0 .776-.332.776-.738 0-.407-.351-.739-.776-.739-.424 0-.775.332-.775.739 0 .406.351.738.775.738zm2.531 10.932h1.09v-3.748h.092c.24.387.702 1.237 2.068 1.237 1.773 0 3.01-1.422 3.01-3.675 0-2.234-1.237-3.656-3.028-3.656-1.385 0-1.81.849-2.05 1.219h-.129v-1.127h-1.053v9.75zm1.071-6.204c0-1.589.702-2.66 2.032-2.66 1.384 0 2.068 1.164 2.068 2.66 0 1.514-.702 2.714-2.068 2.714-1.312 0-2.032-1.108-2.032-2.714zm8.938 3.711c1.237 0 1.883-.665 2.105-1.126h.055v.96h1.09v-4.672c0-2.253-1.718-2.511-2.622-2.511-1.071 0-2.29.369-2.844 1.662l1.034.369c.24-.517.808-1.071 1.847-1.071 1.001 0 1.495.531 1.495 1.44v.037c0 .527-.535.48-1.828.647-1.316.17-2.751.461-2.751 2.086 0 1.385 1.071 2.179 2.419 2.179zm.166-.978c-.868 0-1.496-.388-1.496-1.145 0-.831.757-1.09 1.607-1.201.461-.055 1.699-.184 1.883-.406v.997c0 .887-.701 1.755-1.994 1.755zm8.156-6.279h-1.514v-1.699h-1.09v1.699h-1.071v.923h1.071v4.432c0 1.237.998 1.828 1.921 1.828.406 0 .665-.074.812-.129l-.221-.979c-.093.019-.24.056-.48.056-.48 0-.942-.148-.942-1.071v-4.137h1.514v-.923zm4.536 7.239c1.44 0 2.493-.72 2.825-1.791l-1.052-.296c-.277.739-.919 1.108-1.773 1.108-1.279 0-2.161-.826-2.211-2.345h5.147v-.462c0-2.64-1.57-3.545-3.047-3.545-1.92 0-3.195 1.514-3.195 3.693 0 2.179 1.256 3.638 3.306 3.638zm-2.211-4.266c.073-1.103.854-2.087 2.1-2.087 1.182 0 1.939.887 1.939 2.087h-4.039zm15.483-1.385c-.341-1.006-1.108-1.68-2.511-1.68-1.496 0-2.604.849-2.604 2.049 0 .979.582 1.635 1.884 1.939l1.181.277c.716.167 1.053.508 1.053.998 0 .609-.646 1.108-1.662 1.108-.891 0-1.449-.384-1.643-1.145l-1.034.258c.253 1.205 1.246 1.847 2.696 1.847 1.648 0 2.769-.9 2.769-2.124 0-.988-.618-1.611-1.883-1.92l-1.053-.259c-.84-.208-1.218-.489-1.218-1.034 0-.609.646-1.052 1.514-1.052.951 0 1.343.526 1.532 1.015l.979-.277zm2.471 8.144c.983 0 1.681-.522 2.087-1.607l3.019-8.106-1.191-.019-1.957 5.651h-.074l-1.958-5.651h-1.182l2.623 7.128-.203.554c-.388 1.062-.887 1.163-1.681.96l-.277.96c.111.056.425.13.794.13zm11.57-8.144c-.341-1.006-1.108-1.68-2.511-1.68-1.496 0-2.604.849-2.604 2.049 0 .979.582 1.635 1.884 1.939l1.181.277c.716.167 1.053.508 1.053.998 0 .609-.646 1.108-1.662 1.108-.891 0-1.449-.384-1.643-1.145l-1.034.258c.253 1.205 1.246 1.847 2.696 1.847 1.648 0 2.769-.9 2.769-2.124 0-.988-.618-1.611-1.883-1.92l-1.053-.259c-.84-.208-1.218-.489-1.218-1.034 0-.609.646-1.052 1.514-1.052.951 0 1.343.526 1.533 1.015l.978-.277zm4.853-1.588h-1.514v-1.699h-1.089v1.699h-1.071v.923h1.071v4.432c0 1.237.997 1.828 1.92 1.828.406 0 .665-.074.813-.129l-.222-.979c-.092.019-.24.056-.48.056-.48 0-.942-.148-.942-1.071v-4.137h1.514v-.923zm4.536 7.239c1.44 0 2.493-.72 2.825-1.791l-1.052-.296c-.277.739-.919 1.108-1.773 1.108-1.279 0-2.161-.826-2.211-2.345h5.147v-.462c0-2.64-1.57-3.545-3.047-3.545-1.92 0-3.194 1.514-3.194 3.693 0 2.179 1.255 3.638 3.305 3.638zm-2.211-4.266c.074-1.103.854-2.087 2.1-2.087 1.182 0 1.939.887 1.939 2.087h-4.039zm6.804 4.118h1.09v-4.432c0-1.039.757-1.773 1.606-1.773.827 0 1.404.541 1.404 1.348V271h1.108v-4.616c0-.915.572-1.589 1.569-1.589.776 0 1.441.411 1.441 1.459V271h1.089v-4.746c0-1.666-.895-2.437-2.16-2.437-1.016 0-1.759.466-2.124 1.2h-.074c-.351-.757-.969-1.2-1.902-1.2-.923 0-1.606.443-1.902 1.2h-.092v-1.108h-1.053V271zm-143.825 20h1.09v-7.091h-1.09V291zm.554-8.273c.425 0 .776-.332.776-.738 0-.407-.351-.739-.776-.739-.425 0-.775.332-.775.739 0 .406.35.738.775.738zm7.554 2.77c-.342-1.006-1.108-1.68-2.512-1.68-1.495 0-2.603.849-2.603 2.049 0 .979.581 1.635 1.883 1.939l1.182.277c.716.167 1.053.508 1.053.998 0 .609-.647 1.108-1.662 1.108-.891 0-1.45-.384-1.644-1.145l-1.034.258c.254 1.205 1.247 1.847 2.696 1.847 1.648 0 2.77-.9 2.77-2.124 0-.988-.618-1.611-1.883-1.92l-1.053-.259c-.84-.208-1.219-.489-1.219-1.034 0-.609.647-1.052 1.514-1.052.951 0 1.344.526 1.533 1.015l.979-.277zm6.792 0c-.342-1.006-1.108-1.68-2.512-1.68-1.495 0-2.603.849-2.603 2.049 0 .979.581 1.635 1.883 1.939l1.182.277c.716.167 1.053.508 1.053.998 0 .609-.647 1.108-1.662 1.108-.891 0-1.45-.384-1.644-1.145l-1.034.258c.254 1.205 1.247 1.847 2.696 1.847 1.648 0 2.77-.9 2.77-2.124 0-.988-.619-1.611-1.883-1.92l-1.053-.259c-.84-.208-1.219-.489-1.219-1.034 0-.609.647-1.052 1.514-1.052.951 0 1.344.526 1.533 1.015l.979-.277zm6.238 2.604c0 1.329-1.016 1.939-1.828 1.939-.905 0-1.551-.665-1.551-1.699v-4.432h-1.09v4.506c0 1.809.96 2.677 2.29 2.677 1.071 0 1.773-.572 2.105-1.292h.074v1.2h1.089v-7.091h-1.089v4.192zm6.058 3.047c1.44 0 2.493-.72 2.825-1.791l-1.052-.296c-.277.739-.919 1.108-1.773 1.108-1.279 0-2.161-.826-2.211-2.345h5.147v-.462c0-2.64-1.57-3.545-3.047-3.545-1.92 0-3.195 1.514-3.195 3.693 0 2.179 1.256 3.638 3.306 3.638zm-2.211-4.266c.073-1.103.854-2.087 2.1-2.087 1.182 0 1.939.887 1.939 2.087h-4.039zm11.827-1.385c-.342-1.006-1.108-1.68-2.511-1.68-1.496 0-2.604.849-2.604 2.049 0 .979.582 1.635 1.883 1.939l1.182.277c.716.167 1.053.508 1.053.998 0 .609-.647 1.108-1.662 1.108-.891 0-1.45-.384-1.644-1.145l-1.034.258c.254 1.205 1.247 1.847 2.696 1.847 1.648 0 2.77-.9 2.77-2.124 0-.988-.618-1.611-1.883-1.92l-1.053-.259c-.84-.208-1.219-.489-1.219-1.034 0-.609.647-1.052 1.515-1.052.951 0 1.343.526 1.532 1.015l.979-.277zm8.583-1.588h-1.588v-.72c0-.702.296-1.071 1.016-1.071.314 0 .498.074.609.111l.314-.942c-.166-.074-.499-.185-1.034-.185-1.016 0-1.994.61-1.994 1.828v.979h-1.145v.923h1.145V291h1.089v-6.168h1.588v-.923zm1.527 7.091h1.09v-4.487c0-.96.757-1.662 1.791-1.662.291 0 .591.055.664.074v-1.108c-.124-.009-.41-.019-.572-.019-.849 0-1.588.48-1.847 1.182h-.073v-1.071h-1.053V291zm7.502.148c1.92 0 3.213-1.459 3.213-3.657 0-2.215-1.293-3.674-3.213-3.674-1.921 0-3.213 1.459-3.213 3.674 0 2.198 1.292 3.657 3.213 3.657zm0-.979c-1.459 0-2.124-1.256-2.124-2.678 0-1.421.665-2.696 2.124-2.696s2.123 1.275 2.123 2.696c0 1.422-.664 2.678-2.123 2.678zm4.876.831h1.089v-4.432c0-1.039.758-1.773 1.607-1.773.826 0 1.403.541 1.403 1.348V291h1.108v-4.616c0-.915.573-1.589 1.57-1.589.776 0 1.44.411 1.44 1.459V291h1.09v-4.746c0-1.666-.896-2.437-2.161-2.437-1.015 0-1.759.466-2.123 1.2h-.074c-.351-.757-.97-1.2-1.902-1.2-.923 0-1.607.443-1.902 1.2h-.092v-1.108h-1.053V291zm16.562 0h1.071l1.551-5.447h.111l1.551 5.447h1.071l2.16-7.091h-1.145l-1.532 5.411h-.074l-1.496-5.411h-1.163l-1.515 5.429h-.073l-1.533-5.429h-1.145l2.161 7.091zm11.687.148c1.441 0 2.493-.72 2.826-1.791l-1.053-.296c-.277.739-.919 1.108-1.773 1.108-1.278 0-2.16-.826-2.211-2.345h5.147v-.462c0-2.64-1.569-3.545-3.046-3.545-1.921 0-3.195 1.514-3.195 3.693 0 2.179 1.256 3.638 3.305 3.638zm-2.211-4.266c.074-1.103.854-2.087 2.101-2.087 1.181 0 1.938.887 1.938 2.087h-4.039zm8.891 4.284c1.238 0 1.884-.665 2.105-1.126h.056v.96h1.089v-4.672c0-2.253-1.717-2.511-2.622-2.511-1.071 0-2.29.369-2.844 1.662l1.035.369c.24-.517.807-1.071 1.846-1.071 1.002 0 1.496.531 1.496 1.44v.037c0 .527-.536.48-1.828.647-1.316.17-2.752.461-2.752 2.086 0 1.385 1.071 2.179 2.419 2.179zm.167-.978c-.868 0-1.496-.388-1.496-1.145 0-.831.757-1.09 1.606-1.201.462-.055 1.699-.184 1.884-.406v.997c0 .887-.702 1.755-1.994 1.755zm5.072.812h1.089v-4.487c0-.96.758-1.662 1.792-1.662.29 0 .591.055.664.074v-1.108c-.124-.009-.41-.019-.572-.019-.849 0-1.588.48-1.847 1.182h-.074v-1.071h-1.052V291zm10.58.166c1.237 0 1.883-.665 2.105-1.126h.055v.96h1.09v-4.672c0-2.253-1.718-2.511-2.622-2.511-1.071 0-2.29.369-2.844 1.662l1.034.369c.24-.517.808-1.071 1.847-1.071 1.001 0 1.495.531 1.495 1.44v.037c0 .527-.535.48-1.828.647-1.316.17-2.751.461-2.751 2.086 0 1.385 1.071 2.179 2.419 2.179zm.166-.978c-.868 0-1.496-.388-1.496-1.145 0-.831.757-1.09 1.607-1.201.461-.055 1.699-.184 1.883-.406v.997c0 .887-.701 1.755-1.994 1.755zm6.162-3.454c0-1.237.766-1.939 1.809-1.939 1.011 0 1.625.661 1.625 1.773V291h1.09v-4.506c0-1.809-.965-2.677-2.401-2.677-1.071 0-1.735.48-2.068 1.2h-.092v-1.108h-1.053V291h1.09v-4.266zm9.192 4.414c1.367 0 1.828-.85 2.069-1.237h.129V291h1.052v-9.455h-1.089v3.491h-.092c-.241-.37-.665-1.219-2.05-1.219-1.791 0-3.029 1.422-3.029 3.656 0 2.253 1.238 3.675 3.01 3.675zm.148-.979c-1.366 0-2.068-1.2-2.068-2.714 0-1.496.683-2.66 2.068-2.66 1.33 0 2.031 1.071 2.031 2.66 0 1.606-.72 2.714-2.031 2.714zm11.989-6.26h-1.514v-1.699h-1.09v1.699h-1.071v.923h1.071v4.432c0 1.237.998 1.828 1.921 1.828.406 0 .665-.074.812-.129l-.221-.979c-.093.019-.24.056-.48.056-.48 0-.942-.148-.942-1.071v-4.137h1.514v-.923zm4.536 7.239c1.44 0 2.493-.72 2.825-1.791l-1.053-.296c-.277.739-.918 1.108-1.772 1.108-1.279 0-2.161-.826-2.212-2.345h5.148v-.462c0-2.64-1.57-3.545-3.047-3.545-1.921 0-3.195 1.514-3.195 3.693 0 2.179 1.256 3.638 3.306 3.638zm-2.212-4.266c.074-1.103.855-2.087 2.101-2.087 1.182 0 1.939.887 1.939 2.087h-4.04zm8.892 4.284c1.237 0 1.883-.665 2.105-1.126h.055v.96h1.09v-4.672c0-2.253-1.718-2.511-2.622-2.511-1.071 0-2.29.369-2.844 1.662l1.034.369c.24-.517.808-1.071 1.847-1.071 1.001 0 1.495.531 1.495 1.44v.037c0 .527-.535.48-1.828.647-1.316.17-2.751.461-2.751 2.086 0 1.385 1.071 2.179 2.419 2.179zm.166-.978c-.868 0-1.496-.388-1.496-1.145 0-.831.757-1.09 1.607-1.201.461-.055 1.699-.184 1.883-.406v.997c0 .887-.701 1.755-1.994 1.755zm5.072.812h1.09v-4.487c0-.96.757-1.662 1.791-1.662.291 0 .591.055.665.074v-1.108a10.696 10.696 0 00-.573-.019c-.849 0-1.588.48-1.846 1.182h-.074v-1.071h-1.053V291zm6.259-2.659h1.108v-.055c.019-1.145.314-1.644 1.127-2.152.812-.494 1.292-1.205 1.292-2.225 0-1.44-1.052-2.493-2.677-2.493-1.496 0-2.683.923-2.752 2.493h1.163c.07-1.089.831-1.533 1.589-1.533.867 0 1.569.573 1.569 1.478 0 .734-.42 1.26-.96 1.588-.905.549-1.445 1.085-1.459 2.844v.055zm.591 2.733a.834.834 0 00.831-.831.834.834 0 00-.831-.831.834.834 0 00-.831.831c0 .457.374.831.831.831z" fill="#262B35"/><g filter="url(#filter2_d)"><path d="M48 117a5 5 0 015-5h190a5 5 0 015 5v51a5 5 0 01-5 5h-20.299l.683 14-19.317-14H53a5 5 0 01-5-5v-51z" fill="#fff"/></g><path d="M64.063 136c2.88 0 4.505-1.791 4.505-4.746 0-2.936-1.625-4.709-4.376-4.709h-3.047V136h2.917zm-1.773-1.016v-7.423h1.828c2.216 0 3.342 1.403 3.342 3.693 0 2.308-1.126 3.73-3.471 3.73h-1.7zm10.932 1.164c1.92 0 3.213-1.459 3.213-3.657 0-2.215-1.293-3.674-3.213-3.674-1.92 0-3.213 1.459-3.213 3.674 0 2.198 1.292 3.657 3.213 3.657zm0-.979c-1.46 0-2.124-1.256-2.124-2.678 0-1.421.665-2.696 2.124-2.696 1.458 0 2.123 1.275 2.123 2.696 0 1.422-.665 2.678-2.123 2.678zm7.849.979c1.44 0 2.493-.72 2.825-1.791l-1.052-.296c-.277.739-.92 1.108-1.773 1.108-1.279 0-2.16-.826-2.212-2.345h5.148v-.462c0-2.64-1.57-3.545-3.047-3.545-1.92 0-3.195 1.514-3.195 3.693 0 2.179 1.256 3.638 3.306 3.638zm-2.212-4.266c.074-1.103.855-2.087 2.101-2.087 1.182 0 1.939.887 1.939 2.087h-4.04zm11.828-1.385c-.342-1.006-1.108-1.68-2.511-1.68-1.496 0-2.604.849-2.604 2.049 0 .979.581 1.635 1.883 1.939l1.182.277c.716.167 1.053.508 1.053.998 0 .609-.647 1.108-1.662 1.108-.891 0-1.45-.384-1.644-1.145l-1.034.258c.254 1.205 1.247 1.847 2.696 1.847 1.648 0 2.77-.9 2.77-2.124 0-.988-.618-1.611-1.883-1.92l-1.053-.259c-.84-.208-1.219-.489-1.219-1.034 0-.609.647-1.052 1.514-1.052.951 0 1.344.526 1.533 1.015l.979-.277zm6.127 8.144c.983 0 1.68-.522 2.087-1.607l3.019-8.106-1.191-.019-1.957 5.651h-.074l-1.958-5.651h-1.182l2.623 7.128-.203.554c-.388 1.062-.887 1.163-1.68.96l-.278.96c.11.056.425.13.794.13zm9.174-2.493c1.921 0 3.213-1.459 3.213-3.657 0-2.215-1.292-3.674-3.213-3.674-1.92 0-3.213 1.459-3.213 3.674 0 2.198 1.293 3.657 3.213 3.657zm0-.979c-1.459 0-2.123-1.256-2.123-2.678 0-1.421.664-2.696 2.123-2.696s2.124 1.275 2.124 2.696c0 1.422-.665 2.678-2.124 2.678zm9.345-2.068c0 1.329-1.016 1.939-1.828 1.939-.905 0-1.551-.665-1.551-1.699v-4.432h-1.09v4.506c0 1.809.961 2.677 2.29 2.677 1.071 0 1.773-.572 2.105-1.292h.074v1.2h1.09v-7.091h-1.09v4.192zm3.085 2.899h1.09v-4.487c0-.96.757-1.662 1.791-1.662.291 0 .591.055.665.074v-1.108a10.696 10.696 0 00-.573-.019c-.849 0-1.588.48-1.847 1.182h-.073v-1.071h-1.053V136zm9.583-4.266c0-1.237.789-1.939 1.865-1.939 1.025 0 1.643.647 1.643 1.773V136h1.09v-4.506c0-1.823-.97-2.677-2.419-2.677-1.118 0-1.755.466-2.087 1.2h-.092v-3.472h-1.09V136h1.09v-4.266zm9.472 4.414c1.92 0 3.213-1.459 3.213-3.657 0-2.215-1.293-3.674-3.213-3.674-1.921 0-3.214 1.459-3.214 3.674 0 2.198 1.293 3.657 3.214 3.657zm0-.979c-1.459 0-2.124-1.256-2.124-2.678 0-1.421.665-2.696 2.124-2.696 1.458 0 2.123 1.275 2.123 2.696 0 1.422-.665 2.678-2.123 2.678zm4.876.831h1.089v-4.432c0-1.039.757-1.773 1.607-1.773.826 0 1.403.541 1.403 1.348V136h1.108v-4.616c0-.915.573-1.589 1.57-1.589.775 0 1.44.411 1.44 1.459V136h1.09v-4.746c0-1.666-.896-2.437-2.161-2.437-1.016 0-1.759.466-2.124 1.2h-.073c-.351-.757-.97-1.2-1.902-1.2-.924 0-1.607.443-1.902 1.2h-.093v-1.108h-1.052V136zm14.272.148c1.44 0 2.492-.72 2.825-1.791l-1.053-.296c-.277.739-.918 1.108-1.772 1.108-1.279 0-2.161-.826-2.212-2.345h5.148v-.462c0-2.64-1.57-3.545-3.047-3.545-1.921 0-3.195 1.514-3.195 3.693 0 2.179 1.256 3.638 3.306 3.638zm-2.212-4.266c.074-1.103.854-2.087 2.101-2.087 1.182 0 1.939.887 1.939 2.087h-4.04zM164.87 136h1.09v-2.654l.761-.707 2.655 3.361h1.385l-3.218-4.062 2.996-3.029h-1.348l-3.102 3.158h-.129v-5.522h-1.09V136zm8.161-4.266c0-1.237.766-1.939 1.81-1.939 1.011 0 1.625.661 1.625 1.773V136h1.089v-4.506c0-1.809-.965-2.677-2.4-2.677-1.071 0-1.736.48-2.069 1.2h-.092v-1.108h-1.053V136h1.09v-4.266zm9.396 4.414c1.92 0 3.213-1.459 3.213-3.657 0-2.215-1.293-3.674-3.213-3.674-1.921 0-3.213 1.459-3.213 3.674 0 2.198 1.292 3.657 3.213 3.657zm0-.979c-1.459 0-2.124-1.256-2.124-2.678 0-1.421.665-2.696 2.124-2.696 1.458 0 2.123 1.275 2.123 2.696 0 1.422-.665 2.678-2.123 2.678zm6.241.831h1.071l1.551-5.447h.111l1.551 5.447h1.071l2.161-7.091h-1.145l-1.533 5.411h-.074l-1.495-5.411h-1.164l-1.514 5.429h-.074l-1.532-5.429h-1.145l2.16 7.091zm14.219 0h1.071l1.551-5.447h.111l1.551 5.447h1.071l2.161-7.091h-1.145l-1.533 5.411h-.074l-1.496-5.411h-1.163l-1.514 5.429h-.074l-1.533-5.429h-1.145l2.161 7.091zm10.045-4.266c0-1.237.79-1.939 1.865-1.939 1.025 0 1.644.647 1.644 1.773V136h1.089v-4.506c0-1.823-.969-2.677-2.419-2.677-1.117 0-1.754.466-2.086 1.2h-.093v-3.472h-1.089V136h1.089v-4.266zm9.565 4.414c1.44 0 2.492-.72 2.825-1.791l-1.053-.296c-.277.739-.918 1.108-1.772 1.108-1.279 0-2.161-.826-2.212-2.345h5.148v-.462c0-2.64-1.57-3.545-3.047-3.545-1.921 0-3.195 1.514-3.195 3.693 0 2.179 1.256 3.638 3.306 3.638zm-2.212-4.266c.074-1.103.854-2.087 2.101-2.087 1.182 0 1.939.887 1.939 2.087h-4.04zm7.894-.148c0-1.237.767-1.939 1.81-1.939 1.011 0 1.625.661 1.625 1.773V136h1.09v-4.506c0-1.809-.965-2.677-2.401-2.677-1.071 0-1.736.48-2.068 1.2h-.093v-1.108h-1.052V136h1.089v-4.266zM63.084 156.166c1.237 0 1.883-.665 2.105-1.126h.055v.96h1.09v-4.672c0-2.253-1.718-2.511-2.622-2.511-1.071 0-2.29.369-2.844 1.662l1.034.369c.24-.517.808-1.071 1.847-1.071 1.001 0 1.495.531 1.495 1.44v.037c0 .527-.535.48-1.828.647-1.316.17-2.751.461-2.751 2.086 0 1.385 1.07 2.179 2.419 2.179zm.166-.978c-.868 0-1.496-.388-1.496-1.145 0-.831.757-1.09 1.607-1.201.461-.055 1.699-.184 1.883-.406v.997c0 .887-.701 1.755-1.994 1.755zm8.729 3.471h1.09v-3.748h.091c.24.387.702 1.237 2.069 1.237 1.772 0 3.01-1.422 3.01-3.675 0-2.234-1.238-3.656-3.029-3.656-1.385 0-1.81.849-2.05 1.219h-.129v-1.127H71.98v9.75zm1.07-6.204c0-1.589.702-2.66 2.032-2.66 1.385 0 2.068 1.164 2.068 2.66 0 1.514-.702 2.714-2.068 2.714-1.311 0-2.031-1.108-2.031-2.714zM79.9 156h1.09v-7.091H79.9V156zm.554-8.273c.425 0 .776-.332.776-.738 0-.407-.35-.739-.776-.739-.424 0-.775.332-.775.739 0 .406.35.738.775.738zm2.531 10.932h1.09v-3.748h.092c.24.387.702 1.237 2.068 1.237 1.773 0 3.01-1.422 3.01-3.675 0-2.234-1.237-3.656-3.028-3.656-1.385 0-1.81.849-2.05 1.219h-.129v-1.127h-1.053v9.75zm1.072-6.204c0-1.589.701-2.66 2.03-2.66 1.386 0 2.069 1.164 2.069 2.66 0 1.514-.702 2.714-2.068 2.714-1.311 0-2.031-1.108-2.031-2.714zm9.823 3.693c1.44 0 2.493-.72 2.826-1.791l-1.053-.296c-.277.739-.919 1.108-1.773 1.108-1.278 0-2.16-.826-2.211-2.345h5.147v-.462c0-2.64-1.57-3.545-3.047-3.545-1.92 0-3.194 1.514-3.194 3.693 0 2.179 1.256 3.638 3.305 3.638zm-2.211-4.266c.074-1.103.854-2.087 2.1-2.087 1.182 0 1.94.887 1.94 2.087h-4.04zM102.13 156h1.089v-7.091h-1.089V156zm.554-8.273c.425 0 .776-.332.776-.738 0-.407-.351-.739-.776-.739-.425 0-.776.332-.776.739 0 .406.351.738.776.738zm7.554 2.77c-.342-1.006-1.108-1.68-2.512-1.68-1.495 0-2.603.849-2.603 2.049 0 .979.581 1.635 1.883 1.939l1.182.277c.715.167 1.053.508 1.053.998 0 .609-.647 1.108-1.662 1.108-.891 0-1.45-.384-1.644-1.145l-1.034.258c.254 1.205 1.246 1.847 2.696 1.847 1.648 0 2.77-.9 2.77-2.124 0-.988-.619-1.611-1.884-1.92l-1.052-.259c-.84-.208-1.219-.489-1.219-1.034 0-.609.646-1.052 1.514-1.052.951 0 1.344.526 1.533 1.015l.979-.277zm6.515-3.952h-1.09V156h1.09v-9.455zm4.968 9.603c1.44 0 2.493-.72 2.825-1.791l-1.052-.296c-.277.739-.919 1.108-1.773 1.108-1.279 0-2.16-.826-2.211-2.345h5.147v-.462c0-2.64-1.569-3.545-3.047-3.545-1.92 0-3.194 1.514-3.194 3.693 0 2.179 1.255 3.638 3.305 3.638zm-2.211-4.266c.074-1.103.854-2.087 2.1-2.087 1.182 0 1.939.887 1.939 2.087h-4.039zm8.891 4.284c1.237 0 1.884-.665 2.105-1.126h.056v.96h1.089v-4.672c0-2.253-1.717-2.511-2.622-2.511-1.071 0-2.29.369-2.844 1.662l1.034.369c.24-.517.808-1.071 1.847-1.071 1.002 0 1.496.531 1.496 1.44v.037c0 .527-.536.48-1.828.647-1.316.17-2.752.461-2.752 2.086 0 1.385 1.071 2.179 2.419 2.179zm.166-.978c-.868 0-1.495-.388-1.495-1.145 0-.831.757-1.09 1.606-1.201.462-.055 1.699-.184 1.884-.406v.997c0 .887-.702 1.755-1.995 1.755zm5.073.812h1.089v-2.654l.762-.707 2.654 3.361h1.385l-3.217-4.062 2.996-3.029h-1.348l-3.103 3.158h-.129v-5.522h-1.089V156zm7.071 0h1.09v-7.091h-1.09V156zm.554-8.273c.425 0 .776-.332.776-.738 0-.407-.351-.739-.776-.739-.425 0-.776.332-.776.739 0 .406.351.738.776.738zm3.62 4.007c0-1.237.767-1.939 1.81-1.939 1.011 0 1.625.661 1.625 1.773V156h1.09v-4.506c0-1.809-.965-2.677-2.401-2.677-1.071 0-1.736.48-2.068 1.2h-.092v-1.108h-1.053V156h1.089v-4.266zm9.378 7.073c1.699 0 3.065-.776 3.065-2.604v-7.294h-1.053v1.127h-.11c-.24-.37-.684-1.219-2.068-1.219-1.792 0-3.029 1.422-3.029 3.601 0 2.216 1.293 3.471 3.01 3.471 1.385 0 1.828-.812 2.068-1.2h.093v1.44c0 1.182-.831 1.718-1.976 1.718-1.288 0-1.741-.679-2.032-1.071l-.867.609c.443.743 1.315 1.422 2.899 1.422zm-.037-3.896c-1.367 0-2.068-1.035-2.068-2.512 0-1.44.683-2.604 2.068-2.604 1.329 0 2.031 1.071 2.031 2.604 0 1.57-.72 2.512-2.031 2.512zm6.518-1.57h1.108v-.055c.019-1.145.314-1.644 1.127-2.152.812-.494 1.292-1.205 1.292-2.225 0-1.44-1.052-2.493-2.677-2.493-1.496 0-2.683.923-2.752 2.493h1.164c.069-1.089.831-1.533 1.588-1.533.868 0 1.569.573 1.569 1.478 0 .734-.42 1.26-.96 1.588-.905.549-1.445 1.085-1.459 2.844v.055zm.591 2.733a.834.834 0 00.831-.831.834.834 0 00-.831-.831.834.834 0 00-.831.831c0 .457.374.831.831.831z" fill="#262B35"/><g filter="url(#filter3_d)"><path d="M300 59a5 5 0 015-5h190a5 5 0 015 5v51a5 5 0 01-5 5H345.221a5 5 0 00-4.291 2.433L334.01 129l-7.834-11.77a5 5 0 00-4.162-2.23H305a5 5 0 01-5-5V59z" fill="#fff"/></g><path d="M317.062 78c2.881 0 4.506-1.791 4.506-4.746 0-2.936-1.625-4.709-4.376-4.709h-3.047V78h2.917zm-1.772-1.016v-7.423h1.828c2.216 0 3.342 1.403 3.342 3.693 0 2.308-1.126 3.73-3.471 3.73h-1.699zm10.932 1.164c1.92 0 3.213-1.46 3.213-3.656 0-2.216-1.293-3.675-3.213-3.675-1.921 0-3.213 1.459-3.213 3.675 0 2.197 1.292 3.656 3.213 3.656zm0-.979c-1.459 0-2.124-1.256-2.124-2.677 0-1.422.665-2.697 2.124-2.697 1.458 0 2.123 1.275 2.123 2.697 0 1.421-.665 2.677-2.123 2.677zm7.849.979c1.44 0 2.493-.72 2.825-1.791l-1.053-.296c-.277.739-.918 1.108-1.772 1.108-1.279 0-2.161-.826-2.212-2.345h5.148v-.462c0-2.64-1.57-3.545-3.047-3.545-1.92 0-3.195 1.514-3.195 3.693 0 2.179 1.256 3.638 3.306 3.638zm-2.212-4.266c.074-1.103.855-2.087 2.101-2.087 1.182 0 1.939.887 1.939 2.087h-4.04zm11.828-1.385c-.342-1.006-1.108-1.68-2.511-1.68-1.496 0-2.604.85-2.604 2.05 0 .978.581 1.634 1.883 1.938l1.182.277c.716.167 1.053.508 1.053.998 0 .609-.647 1.108-1.662 1.108-.891 0-1.45-.384-1.644-1.145l-1.034.258c.254 1.205 1.247 1.847 2.696 1.847 1.648 0 2.77-.9 2.77-2.124 0-.988-.618-1.611-1.883-1.92l-1.053-.259c-.84-.208-1.219-.49-1.219-1.034 0-.61.647-1.053 1.515-1.053.951 0 1.343.527 1.532 1.016l.979-.277zm6.127 8.144c.983 0 1.68-.522 2.087-1.607l3.019-8.106-1.191-.019-1.958 5.65h-.073l-1.958-5.65h-1.182l2.623 7.128-.204.554c-.387 1.062-.886 1.163-1.68.96l-.277.96c.111.056.425.13.794.13zm9.174-2.493c1.921 0 3.213-1.46 3.213-3.656 0-2.216-1.292-3.675-3.213-3.675-1.92 0-3.213 1.459-3.213 3.675 0 2.197 1.293 3.656 3.213 3.656zm0-.979c-1.459 0-2.123-1.256-2.123-2.677 0-1.422.664-2.697 2.123-2.697s2.124 1.275 2.124 2.697c0 1.421-.665 2.677-2.124 2.677zm9.345-2.068c0 1.33-1.016 1.939-1.828 1.939-.905 0-1.551-.665-1.551-1.7v-4.43h-1.09v4.505c0 1.81.961 2.677 2.29 2.677 1.071 0 1.773-.572 2.105-1.292h.074V78h1.09v-7.09h-1.09v4.19zM371.418 78h1.09v-4.487c0-.96.757-1.662 1.791-1.662.291 0 .591.055.665.074v-1.108a9.744 9.744 0 00-.573-.019c-.849 0-1.588.48-1.847 1.182h-.073v-1.07h-1.053V78zm9.583-4.266c0-1.237.789-1.938 1.865-1.938 1.025 0 1.643.646 1.643 1.772V78h1.09v-4.506c0-1.823-.97-2.677-2.419-2.677-1.118 0-1.755.466-2.087 1.2h-.092v-3.471h-1.09V78h1.09v-4.266zm9.472 4.414c1.92 0 3.213-1.46 3.213-3.656 0-2.216-1.293-3.675-3.213-3.675-1.921 0-3.214 1.459-3.214 3.675 0 2.197 1.293 3.656 3.214 3.656zm0-.979c-1.459 0-2.124-1.256-2.124-2.677 0-1.422.665-2.697 2.124-2.697 1.458 0 2.123 1.275 2.123 2.697 0 1.421-.665 2.677-2.123 2.677zm4.876.831h1.089v-4.432c0-1.038.757-1.772 1.607-1.772.826 0 1.403.54 1.403 1.347V78h1.108v-4.617c0-.913.573-1.587 1.57-1.587.775 0 1.44.41 1.44 1.458V78h1.09v-4.746c0-1.666-.896-2.437-2.161-2.437-1.016 0-1.759.466-2.124 1.2h-.073c-.351-.757-.97-1.2-1.902-1.2-.924 0-1.607.443-1.902 1.2h-.093v-1.108h-1.052V78zm14.272.148c1.44 0 2.492-.72 2.825-1.791l-1.053-.296c-.277.739-.918 1.108-1.772 1.108-1.279 0-2.161-.826-2.212-2.345h5.148v-.462c0-2.64-1.57-3.545-3.047-3.545-1.921 0-3.195 1.514-3.195 3.693 0 2.179 1.256 3.638 3.306 3.638zm-2.212-4.266c.074-1.103.854-2.087 2.101-2.087 1.182 0 1.939.887 1.939 2.087h-4.04zM417.87 78h1.09v-2.654l.761-.707L422.376 78h1.385l-3.218-4.063 2.996-3.028h-1.348l-3.102 3.158h-.129v-5.521h-1.09V78zm8.161-4.266c0-1.237.766-1.938 1.81-1.938 1.011 0 1.625.66 1.625 1.772V78h1.089v-4.506c0-1.81-.965-2.677-2.4-2.677-1.071 0-1.736.48-2.069 1.2h-.092v-1.108h-1.053V78h1.09v-4.266zm9.396 4.414c1.92 0 3.213-1.46 3.213-3.656 0-2.216-1.293-3.675-3.213-3.675-1.921 0-3.213 1.459-3.213 3.675 0 2.197 1.292 3.656 3.213 3.656zm0-.979c-1.459 0-2.124-1.256-2.124-2.677 0-1.422.665-2.697 2.124-2.697 1.458 0 2.123 1.275 2.123 2.697 0 1.421-.665 2.677-2.123 2.677zm6.241.831h1.071l1.551-5.447h.111L445.952 78h1.071l2.161-7.09h-1.145l-1.533 5.41h-.074l-1.495-5.41h-1.164l-1.514 5.428h-.074l-1.532-5.429h-1.145l2.16 7.091zM316.084 98.166c1.237 0 1.883-.665 2.105-1.126h.055V98h1.09v-4.672c0-2.253-1.718-2.511-2.622-2.511-1.071 0-2.29.37-2.844 1.662l1.034.369c.24-.517.808-1.071 1.847-1.071 1.001 0 1.495.53 1.495 1.44v.037c0 .526-.535.48-1.828.647-1.316.17-2.751.461-2.751 2.086 0 1.385 1.071 2.18 2.419 2.18zm.166-.978c-.868 0-1.496-.388-1.496-1.145 0-.831.757-1.09 1.607-1.2.461-.056 1.699-.185 1.883-.407v.997c0 .887-.701 1.754-1.994 1.754zm5.22.812h1.053v-1.09h.129c.24.388.702 1.238 2.068 1.238 1.773 0 3.01-1.422 3.01-3.675 0-2.234-1.237-3.656-3.028-3.656-1.385 0-1.81.85-2.05 1.219h-.092v-3.49h-1.09V98zm1.071-3.546c0-1.587.702-2.658 2.031-2.658 1.385 0 2.069 1.163 2.069 2.658 0 1.515-.702 2.715-2.069 2.715-1.311 0-2.031-1.108-2.031-2.715zm9.736 3.694c1.921 0 3.213-1.46 3.213-3.656 0-2.216-1.292-3.675-3.213-3.675-1.92 0-3.213 1.459-3.213 3.675 0 2.197 1.293 3.656 3.213 3.656zm0-.979c-1.459 0-2.123-1.256-2.123-2.677 0-1.422.664-2.697 2.123-2.697s2.124 1.275 2.124 2.697c0 1.421-.665 2.677-2.124 2.677zm9.345-2.068c0 1.33-1.015 1.939-1.828 1.939-.905 0-1.551-.665-1.551-1.7v-4.43h-1.09v4.505c0 1.81.961 2.677 2.29 2.677 1.071 0 1.773-.572 2.105-1.292h.074V98h1.09v-7.09h-1.09v4.19zm6.169-4.192h-1.514V89.21h-1.09v1.7h-1.071v.922h1.071v4.432c0 1.237.997 1.828 1.921 1.828.406 0 .664-.073.812-.129l-.221-.979c-.093.019-.24.056-.481.056-.48 0-.941-.148-.941-1.071v-4.137h1.514v-.923zm6.385 2.825c0-1.237.789-1.938 1.865-1.938 1.024 0 1.643.646 1.643 1.772V98h1.09v-4.506c0-1.823-.97-2.677-2.42-2.677-1.117 0-1.754.466-2.086 1.2h-.092v-3.471h-1.09V98h1.09v-4.266zm9.471 4.414c1.921 0 3.213-1.46 3.213-3.656 0-2.216-1.292-3.675-3.213-3.675-1.92 0-3.213 1.459-3.213 3.675 0 2.197 1.293 3.656 3.213 3.656zm0-.979c-1.458 0-2.123-1.256-2.123-2.677 0-1.422.665-2.697 2.123-2.697 1.459 0 2.124 1.275 2.124 2.697 0 1.421-.665 2.677-2.124 2.677zm7.96-6.26h-1.514V89.21h-1.089v1.7h-1.071v.922h1.071v4.432c0 1.237.997 1.828 1.92 1.828.406 0 .665-.073.813-.129l-.222-.979c-.092.019-.24.056-.48.056-.48 0-.942-.148-.942-1.071v-4.137h1.514v-.923zM378.509 98h1.071l1.551-5.447h.111L382.793 98h1.071l2.161-7.09h-1.145l-1.533 5.41h-.074l-1.496-5.41h-1.163l-1.514 5.428h-.074l-1.533-5.429h-1.145L378.509 98zm11.043.166c1.237 0 1.883-.665 2.105-1.126h.055V98h1.09v-4.672c0-2.253-1.718-2.511-2.623-2.511-1.071 0-2.289.37-2.843 1.662l1.034.369c.24-.517.808-1.071 1.846-1.071 1.002 0 1.496.53 1.496 1.44v.037c0 .526-.535.48-1.828.647-1.316.17-2.751.461-2.751 2.086 0 1.385 1.071 2.18 2.419 2.18zm.166-.978c-.868 0-1.496-.388-1.496-1.145 0-.831.757-1.09 1.607-1.2.461-.056 1.698-.185 1.883-.407v.997c0 .887-.702 1.754-1.994 1.754zm8.156-6.279h-1.514V89.21h-1.09v1.7h-1.071v.922h1.071v4.432c0 1.237.997 1.828 1.921 1.828.406 0 .664-.073.812-.129l-.221-.979c-.093.019-.24.056-.481.056-.48 0-.941-.148-.941-1.071v-4.137h1.514v-.923zm4.536 7.239c1.44 0 2.493-.72 2.825-1.791l-1.053-.296c-.277.739-.918 1.108-1.772 1.108-1.279 0-2.161-.826-2.212-2.345h5.148v-.462c0-2.64-1.57-3.545-3.047-3.545-1.921 0-3.195 1.514-3.195 3.693 0 2.179 1.256 3.638 3.306 3.638zm-2.212-4.266c.074-1.103.854-2.087 2.101-2.087 1.182 0 1.939.887 1.939 2.087h-4.04zM407.003 98h1.09v-4.487c0-.96.757-1.662 1.791-1.662.291 0 .591.055.664.074v-1.108a9.678 9.678 0 00-.572-.019c-.849 0-1.588.48-1.847 1.182h-.073v-1.07h-1.053V98zm8.493 2.659h1.09V96.91h.092c.24.388.702 1.238 2.068 1.238 1.773 0 3.01-1.422 3.01-3.675 0-2.234-1.237-3.656-3.028-3.656-1.385 0-1.81.85-2.05 1.219h-.129v-1.127h-1.053v9.75zm1.071-6.205c0-1.587.702-2.658 2.031-2.658 1.385 0 2.069 1.163 2.069 2.658 0 1.515-.702 2.715-2.069 2.715-1.311 0-2.031-1.108-2.031-2.715zM423.418 98h1.09v-4.487c0-.96.757-1.662 1.791-1.662.291 0 .591.055.665.074v-1.108a9.744 9.744 0 00-.573-.019c-.849 0-1.588.48-1.847 1.182h-.073v-1.07h-1.053V98zm7.502.148c1.92 0 3.213-1.46 3.213-3.656 0-2.216-1.293-3.675-3.213-3.675-1.921 0-3.213 1.459-3.213 3.675 0 2.197 1.292 3.656 3.213 3.656zm0-.979c-1.459 0-2.124-1.256-2.124-2.677 0-1.422.665-2.697 2.124-2.697s2.123 1.275 2.123 2.697c0 1.421-.664 2.677-2.123 2.677zm5.024.831h1.052v-1.09h.13c.24.388.701 1.238 2.068 1.238 1.772 0 3.01-1.422 3.01-3.675 0-2.234-1.238-3.656-3.029-3.656-1.385 0-1.809.85-2.049 1.219h-.093v-3.49h-1.089V98zm1.071-3.546c0-1.587.701-2.658 2.031-2.658 1.385 0 2.068 1.163 2.068 2.658 0 1.515-.702 2.715-2.068 2.715-1.311 0-2.031-1.108-2.031-2.715zm7.945-5.908h-1.09V98h1.09v-9.454zm4.968 9.602c1.441 0 2.493-.72 2.825-1.791l-1.052-.296c-.277.739-.919 1.108-1.773 1.108-1.279 0-2.16-.826-2.211-2.345h5.147v-.462c0-2.64-1.569-3.545-3.047-3.545-1.92 0-3.194 1.514-3.194 3.693 0 2.179 1.255 3.638 3.305 3.638zm-2.211-4.266c.074-1.103.854-2.087 2.1-2.087 1.182 0 1.939.887 1.939 2.087h-4.039zM454.522 98h1.089v-4.432c0-1.038.757-1.772 1.607-1.772.826 0 1.403.54 1.403 1.347V98h1.108v-4.617c0-.913.572-1.587 1.57-1.587.775 0 1.44.41 1.44 1.458V98h1.089v-4.746c0-1.666-.895-2.437-2.16-2.437-1.016 0-1.759.466-2.124 1.2h-.074c-.35-.757-.969-1.2-1.902-1.2-.923 0-1.606.443-1.902 1.2h-.092v-1.108h-1.052V98zm12.72-2.66h1.108v-.055c.019-1.144.314-1.643 1.127-2.15.812-.495 1.292-1.206 1.292-2.226 0-1.44-1.052-2.493-2.677-2.493-1.496 0-2.682.924-2.752 2.493h1.164c.069-1.09.831-1.533 1.588-1.533.868 0 1.569.573 1.569 1.478 0 .734-.42 1.26-.96 1.588-.905.55-1.445 1.085-1.459 2.844v.055zm.591 2.734a.834.834 0 00.831-.831.834.834 0 00-.831-.831.834.834 0 00-.831.83c0 .458.374.832.831.832z" fill="#262B35"/><defs><filter id="filter0_d" x="237" y="323" width="316" height="194" filterUnits="userSpaceOnUse" color-interpolation-filters="sRGB"><feFlood flood-opacity="0" result="BackgroundImageFix"/><feColorMatrix in="SourceAlpha" values="0 0 0 0 0 0 0 0 0 0 0 0 0 0 0 0 0 0 127 0"/><feOffset dy="12"/><feGaussianBlur stdDeviation="24"/><feColorMatrix values="0 0 0 0 0.171701 0 0 0 0 0.177292 0 0 0 0 0.191667 0 0 0 0.16 0"/><feBlend in2="BackgroundImageFix" result="effect1_dropShadow"/><feBlend in="SourceGraphic" in2="effect1_dropShadow" result="shape"/></filter><filter id="filter1_d" x="47" y="193" width="306" height="174" filterUnits="userSpaceOnUse" color-interpolation-filters="sRGB"><feFlood flood-opacity="0" result="BackgroundImageFix"/><feColorMatrix in="SourceAlpha" values="0 0 0 0 0 0 0 0 0 0 0 0 0 0 0 0 0 0 127 0"/><feOffset dy="12"/><feGaussianBlur stdDeviation="24"/><feColorMatrix values="0 0 0 0 0.171701 0 0 0 0 0.177292 0 0 0 0 0.191667 0 0 0 0.16 0"/><feBlend in2="BackgroundImageFix" result="effect1_dropShadow"/><feBlend in="SourceGraphic" in2="effect1_dropShadow" result="shape"/></filter><filter id="filter2_d" x="0" y="76" width="296" height="171" filterUnits="userSpaceOnUse" color-interpolation-filters="sRGB"><feFlood flood-opacity="0" result="BackgroundImageFix"/><feColorMatrix in="SourceAlpha" values="0 0 0 0 0 0 0 0 0 0 0 0 0 0 0 0 0 0 127 0"/><feOffset dy="12"/><feGaussianBlur stdDeviation="24"/><feColorMatrix values="0 0 0 0 0.171701 0 0 0 0 0.177292 0 0 0 0 0.191667 0 0 0 0.16 0"/><feBlend in2="BackgroundImageFix" result="effect1_dropShadow"/><feBlend in="SourceGraphic" in2="effect1_dropShadow" result="shape"/></filter><filter id="filter3_d" x="252" y="18" width="296" height="171" filterUnits="userSpaceOnUse" color-interpolation-filters="sRGB"><feFlood flood-opacity="0" result="BackgroundImageFix"/><feColorMatrix in="SourceAlpha" values="0 0 0 0 0 0 0 0 0 0 0 0 0 0 0 0 0 0 127 0"/><feOffset dy="12"/><feGaussianBlur stdDeviation="24"/><feColorMatrix values="0 0 0 0 0.171701 0 0 0 0 0.177292 0 0 0 0 0.191667 0 0 0 0.16 0"/><feBlend in2="BackgroundImageFix" result="effect1_dropShadow"/><feBlend in="SourceGraphic" in2="effect1_dropShadow" result="shape"/></filter></defs></svg>