<svg width="55" height="55" fill="none" xmlns="http://www.w3.org/2000/svg"><rect opacity=".6" width="55" height="55" rx="24" fill="#FAE3AF"/><path fill-rule="evenodd" clip-rule="evenodd" d="M43.796 9.5h-8.148c-.963 0-1.746.781-1.746 1.742v4.645c0 .96.783 1.742 1.746 1.742h1.554l-.602 3.502 5.617-3.502h1.579c.962 0 1.745-.782 1.745-1.742v-4.645c0-.96-.783-1.742-1.745-1.742zm.581 6.387c0 .32-.26.58-.581.58h-1.913l-3.697 2.305.397-2.304h-2.935a.582.582 0 01-.582-.58v-4.646c0-.32.261-.58.582-.58h8.148c.32 0 .581.26.581.58v4.645zm-5.594 24.968l-1.348-4.033a4.071 4.071 0 00-3.136-2.714l-3.89-.706v-.3a5.855 5.855 0 001.736-1.537h1.174c.963 0 1.746-.782 1.746-1.742v-6.968c0-4.162-3.394-7.549-7.565-7.549-4.172 0-7.566 3.387-7.566 7.549v4.064c0 1.12.798 2.056 1.856 2.275a5.818 5.818 0 002.8 3.908v.3l-3.89.706a4.07 4.07 0 00-3.136 2.714l-.233.697-1.982-1.978a.58.58 0 010-.821l2.299-2.293-4.315-4.305-2.598 2.592a4.033 4.033 0 00-1.193 2.874c0 1.086.424 2.106 1.193 2.874l7.866 7.847a4.053 4.053 0 002.88 1.191 4.037 4.037 0 002.863-1.173l2.834-2.592-.884-.88h12.489zM33.9 29.823c0 .32-.26.58-.582.58h-.489c.169-.383.297-.788.38-1.21.249-.05.478-.15.691-.274v.904zm-.582-1.904v-2c.347.202.582.572.582 1 0 .428-.235.799-.582 1zm-11.64 0a1.157 1.157 0 01-.581-1c0-.428.236-.798.582-1v2zm0-3.903v.663a2.312 2.312 0 00-.581.24v-2.064c0-3.522 2.872-6.387 6.402-6.387 3.53 0 6.401 2.865 6.401 6.387v2.065a2.289 2.289 0 00-.582-.24v-.664h-.582a6.41 6.41 0 01-4.556-1.883l-.681-.68-.682.68a6.411 6.411 0 01-4.556 1.883h-.582zm1.165 4.065v-2.926a7.553 7.553 0 004.656-2.063 7.55 7.55 0 004.656 2.063v2.926c0 .846-.232 1.638-.63 2.322H27.5v1.162h3.069a4.637 4.637 0 01-3.07 1.16c-2.566 0-4.655-2.083-4.655-4.644zm6.402 5.539v.027L27.5 35.389l-1.746-1.742v-.027a5.825 5.825 0 003.492 0zm-10.578 3.569a2.909 2.909 0 012.24-1.94l4.068-.736L27.5 37.03l2.523-2.518 4.068.738a2.908 2.908 0 012.24 1.938l.837 2.505H25.13l-2.266-2.262-2.52 2.273a.595.595 0 01-.822 0l-1.271-1.268.416-1.248zm-5.336-7.425l2.67 2.663-.633.63-2.669-2.662.632-.631zm10.206 13.725a2.9 2.9 0 01-2.058.85 2.897 2.897 0 01-2.058-.85l-7.865-7.848a2.88 2.88 0 01-.852-2.052c0-.776.302-1.505.852-2.053l.32-.32 2.669 2.663-.021.02c-.68.68-.68 1.785 0 2.465l4.173 4.163c.33.33.768.51 1.235.51.467 0 .905-.18 1.214-.49l.043-.038 2.682 2.675-.334.305zm1.193-1.091l-2.676-2.67.769-.693 2.67 2.665-.763.698zm11.5-30.575h6.984v1.16H36.23v-1.16zm4.656 2.322H36.23v1.161h4.656v-1.16zm1.163 0h1.164v1.161H42.05v-1.16zM27.5 11.242c-7.603 0-14.154 5.248-15.856 12.568l-1.103-1.834-.998.597 2.045 3.401 3.409-2.04-.599-.997-1.577.944c1.65-6.696 7.685-11.478 14.68-11.478 1.529 0 3.037.227 4.483.674l.345-1.11a16.32 16.32 0 00-4.828-.725zm14.35 9.074l3.41 2.04-.6.996-1.71-1.023c.56 1.66.846 3.395.846 5.171a16.27 16.27 0 01-3.635 10.237l-.904-.732a15.11 15.11 0 003.375-9.505c0-1.677-.274-3.314-.81-4.88l-1.018 1.695-.998-.598 2.045-3.401z" fill="#D69026"/></svg>