<svg width="158" height="42" fill="none" xmlns="http://www.w3.org/2000/svg"><path d="M64.986 16.065h3.537c-.051-3.11-2.608-5.258-6.495-5.258-3.826 0-6.63 2.114-6.613 5.284-.009 2.574 1.807 4.048 4.755 4.756l1.901.477c1.9.46 2.957 1.005 2.966 2.182-.009 1.278-1.219 2.147-3.094 2.147-1.917 0-3.298-.886-3.417-2.633h-3.572c.094 3.776 2.796 5.727 7.032 5.727 4.261 0 6.767-2.037 6.775-5.233-.008-2.906-2.198-4.449-5.233-5.13l-1.568-.375c-1.517-.35-2.787-.912-2.761-2.165 0-1.125.997-1.952 2.804-1.952 1.764 0 2.846.801 2.983 2.173zm6.19 12.435h3.63V15.41h-3.63V28.5zm1.823-14.778c1.083 0 1.969-.827 1.969-1.841 0-1.006-.886-1.833-1.969-1.833-1.074 0-1.96.827-1.96 1.833 0 1.014.886 1.84 1.96 1.84zm4.716 19.687h3.63v-7.006h.111c.503 1.091 1.602 2.31 3.716 2.31 2.983 0 5.31-2.36 5.31-6.741 0-4.5-2.43-6.733-5.302-6.733-2.19 0-3.238 1.304-3.724 2.369h-.162v-2.199h-3.58v18zm3.553-11.454c0-2.336.99-3.827 2.753-3.827 1.799 0 2.753 1.56 2.753 3.826 0 2.285-.971 3.87-2.753 3.87-1.747 0-2.752-1.534-2.752-3.87zm15.265-1.023c.008-1.688 1.04-2.676 2.522-2.676 1.475 0 2.344.946 2.336 2.556V28.5h3.63v-8.335c.009-3.068-1.798-4.926-4.525-4.926-1.986 0-3.316.937-3.912 2.48h-.154v-6.674h-3.528V28.5h3.63v-7.568zm17.26 7.824c3.972 0 6.444-2.72 6.444-6.75 0-4.057-2.472-6.767-6.444-6.767-3.971 0-6.443 2.71-6.443 6.767 0 4.03 2.472 6.75 6.443 6.75zm.017-2.813c-1.832 0-2.77-1.679-2.77-3.963s.938-3.971 2.77-3.971c1.799 0 2.736 1.687 2.736 3.971s-.937 3.963-2.736 3.963zm8.787 2.557h3.631v-7.858c0-1.449.92-2.412 2.131-2.412 1.193 0 1.994.818 1.994 2.105V28.5h3.52v-7.994c0-1.355.775-2.276 2.096-2.276 1.16 0 2.029.724 2.029 2.182V28.5h3.622v-8.804c0-2.838-1.687-4.457-4.125-4.457-1.918 0-3.409.98-3.946 2.48h-.136c-.418-1.517-1.756-2.48-3.554-2.48-1.765 0-3.103.937-3.648 2.48h-.153v-2.31h-3.461V28.5zm27.857.256c3.238 0 5.42-1.577 5.932-4.006l-3.358-.222c-.367.998-1.304 1.518-2.515 1.518-1.815 0-2.965-1.202-2.965-3.154v-.008h8.914v-.998c0-4.448-2.693-6.647-6.153-6.647-3.852 0-6.349 2.735-6.349 6.775 0 4.15 2.463 6.742 6.494 6.742zm-2.906-8.122c.076-1.492 1.21-2.685 2.821-2.685 1.576 0 2.667 1.125 2.676 2.684h-5.497z" fill="#1C57C9"/><path d="M0 21A21 21 0 1021 0v21H0z" fill="#1ECE7A"/><path d="M33.135 21.5a12.134 12.134 0 10-24.27 0h24.27z" fill="#1C57C9"/></svg>