<svg width="28" height="28" fill="none" xmlns="http://www.w3.org/2000/svg"><path d="M19.659.46H8.34C3.741.46 0 4.105 0 8.586V19.61c0 4.48 3.742 8.126 8.341 8.126H19.66c4.6 0 8.341-3.645 8.341-8.126V8.586C28 4.106 24.258.46 19.659.46zm5.524 19.15c0 2.972-2.473 5.382-5.524 5.382H8.34c-3.05 0-5.524-2.41-5.524-5.382V8.586c0-2.973 2.473-5.382 5.524-5.382h11.32c3.05 0 5.524 2.41 5.524 5.382V19.61z" fill="url(#paint0_linear)"/><path d="M14 7.042c-3.994 0-7.243 3.165-7.243 7.055 0 3.89 3.25 7.055 7.242 7.055 3.993 0 7.242-3.165 7.242-7.055 0-3.89-3.249-7.055-7.242-7.055zm0 11.366c-2.445 0-4.426-1.93-4.426-4.31 0-2.382 1.981-4.311 4.425-4.311s4.425 1.93 4.425 4.31-1.98 4.31-4.425 4.31z" fill="url(#paint1_linear)"/><path d="M21.256 8.786c.959 0 1.735-.757 1.735-1.69 0-.934-.776-1.69-1.735-1.69-.958 0-1.735.756-1.735 1.69 0 .933.777 1.69 1.735 1.69z" fill="url(#paint2_linear)"/><defs><linearGradient id="paint0_linear" x1="14" y1="27.656" x2="14" y2=".672" gradientUnits="userSpaceOnUse"><stop stop-color="#E09B3D"/><stop offset=".3" stop-color="#C74C4D"/><stop offset=".6" stop-color="#C21975"/><stop offset="1" stop-color="#7024C4"/></linearGradient><linearGradient id="paint1_linear" x1="13.999" y1="27.656" x2="13.999" y2=".671" gradientUnits="userSpaceOnUse"><stop stop-color="#E09B3D"/><stop offset=".3" stop-color="#C74C4D"/><stop offset=".6" stop-color="#C21975"/><stop offset="1" stop-color="#7024C4"/></linearGradient><linearGradient id="paint2_linear" x1="21.256" y1="27.656" x2="21.256" y2=".671" gradientUnits="userSpaceOnUse"><stop stop-color="#E09B3D"/><stop offset=".3" stop-color="#C74C4D"/><stop offset=".6" stop-color="#C21975"/><stop offset="1" stop-color="#7024C4"/></linearGradient></defs></svg>