<svg width="60" height="60" fill="none" xmlns="http://www.w3.org/2000/svg"><circle cx="30" cy="30" r="30" fill="#fff"/><path fill-rule="evenodd" clip-rule="evenodd" d="M45.89 17.625h-1.687v-3.516A2.111 2.111 0 0042.093 12H17.907c-1.163 0-2.11.946-2.11 2.11v3.515H14.11a2.111 2.111 0 00-2.109 2.11v20.25c0 1.162.946 2.109 2.11 2.109h12.374v1.687h-1.337c-1.163 0-2.11.946-2.11 2.11v1.406c0 .388.315.703.704.703H36.26a.703.703 0 00.703-.703V45.89a2.112 2.112 0 00-2.11-2.109h-1.337v-1.687H45.89a2.112 2.112 0 002.109-2.11v-20.25a2.111 2.111 0 00-2.11-2.109zm0 1.406c.388 0 .704.316.704.703v16.172h-2.39V19.031h1.687zm-27.984-5.625h24.188c.387 0 .703.316.703.703v3.516H17.203v-3.516c0-.387.316-.703.703-.703zm-3.797 5.625h1.688v5.273a.703.703 0 001.406 0v-5.273h25.594v16.875H39.21V33.59a.703.703 0 00-.703-.703h-.915a7.825 7.825 0 00-.66-1.592l.648-.647a.703.703 0 000-.994l-2.135-2.135a.703.703 0 00-.995 0l-.647.647a7.82 7.82 0 00-1.592-.66v-.914a.703.703 0 00-.703-.703H28.49a.703.703 0 00-.704.703v.915a7.822 7.822 0 00-1.591.66l-.648-.648a.703.703 0 00-.994 0l-2.135 2.135a.703.703 0 000 .994l.648.647a7.823 7.823 0 00-.66 1.592h-.915a.703.703 0 00-.703.703v2.317h-3.586v-5.274a.703.703 0 00-1.406 0v5.274h-2.39V19.734c0-.387.315-.703.702-.703zm10.34 11.656l-.538-.537 1.14-1.14.538.537a.703.703 0 00.88.093 6.442 6.442 0 012.168-.9.703.703 0 00.557-.687v-.76h1.612v.76c0 .332.232.619.557.688a6.442 6.442 0 012.169.899c.278.18.645.142.88-.093l.537-.538 1.14 1.14-.537.538a.703.703 0 00-.093.88 6.44 6.44 0 01.899 2.169.703.703 0 00.687.556h.76v1.614H33.42A3.52 3.52 0 0030 31.582a3.52 3.52 0 00-3.421 4.324h-4.384v-1.614h.76a.703.703 0 00.687-.556 6.442 6.442 0 01.9-2.169.703.703 0 00-.094-.88zM27.89 35.1c0-1.164.947-2.11 2.11-2.11 1.163 0 2.11.946 2.11 2.11 0 .277-.056.552-.163.807h-3.894a2.099 2.099 0 01-.163-.807zm7.666 10.791v.704H24.444v-.704c0-.387.315-.703.703-.703h9.706c.388 0 .703.316.703.703zm-7.665-2.109v-1.687h4.218v1.687h-4.218zm-13.782-3.094a.704.704 0 01-.703-.703v-2.672h33.188v2.672a.704.704 0 01-.703.703H14.109zm18-24.468h7.594a.703.703 0 100-1.407H32.11a.703.703 0 100 1.407zm-8.221-.206a.708.708 0 01-.497.206.708.708 0 01-.497-.206.708.708 0 01-.206-.497.71.71 0 01.206-.498.708.708 0 01.497-.206.708.708 0 01.703.703.708.708 0 01-.206.498zm-3.591.206a.708.708 0 00.497-.206.708.708 0 00.206-.497.708.708 0 00-.206-.498.708.708 0 00-.497-.206.708.708 0 00-.497.207.708.708 0 00-.206.497.71.71 0 00.206.497.71.71 0 00.497.206zm6.684-.206a.708.708 0 01-.497.206.708.708 0 01-.497-.206.708.708 0 01-.206-.497c0-.185.076-.367.206-.498a.708.708 0 01.497-.206.708.708 0 01.703.703.708.708 0 01-.206.498zm-7.106 6.393h1.673a.703.703 0 000-1.406h-1.673a.703.703 0 000 1.406zm11.217 0h-6.45a.703.703 0 010-1.406h6.45a.703.703 0 110 1.406zm-11.217 3.375h4.078a.703.703 0 100-1.406h-4.078a.703.703 0 100 1.406zm20.25-3.375h-5.939a.703.703 0 010-1.406h5.939a.703.703 0 010 1.406zm0 1.969h-4.812a.703.703 0 100 1.406h4.812a.703.703 0 000-1.406zm-23.128 3.59a.708.708 0 01-.497.206.708.708 0 01-.497-.206.708.708 0 01-.206-.497c0-.185.075-.366.206-.497a.708.708 0 01.497-.206.707.707 0 01.703.703.708.708 0 01-.206.497z" fill="#1C57C9"/></svg>