<svg width="60" height="60" fill="none" xmlns="http://www.w3.org/2000/svg"><circle cx="30" cy="30" r="30" fill="#fff"/><path fill-rule="evenodd" clip-rule="evenodd" d="M47.623 34.242a.604.604 0 00-.66.144L44.4 37.079V21.08h.003l2.445-2.64a.6.6 0 00-.033-.848l-.88-.82 1.222-1.32a.6.6 0 00-.034-.847l-2.64-2.445a.6.6 0 00-.847.033l-4.266 4.606H18.6a3.004 3.004 0 00-3-3H15a3.004 3.004 0 00-3 3v25.8a.6.6 0 00.6.6h9.083l-1.26 1.513a.6.6 0 00.077.845l2.767 2.304a.6.6 0 00.845-.078l3.071-3.69a1.78 1.78 0 00.394-.894H38.57l-3.606 3.787a.6.6 0 00.435 1.013h12a.6.6 0 00.6-.6V34.8a.6.6 0 00-.377-.557zM45.56 18.059l-1.16 1.255v-.883l.72-.78.44.408zm-2.36-.107v.009l-5.074 5.484-1.762-1.63 6.112-6.607 1.763 1.63-1.032 1.114H43.2zm-6.227 6.06l-1.38.403.295-1.408 1.085 1.005zm7.134-10.565l1.761 1.63-.815.882-1.762-1.631.816-.88zM15 15h.6a1.8 1.8 0 011.8 1.8v22.816A2.97 2.97 0 0015.6 39H15a2.968 2.968 0 00-1.8.616V16.799A1.8 1.8 0 0115 15zm0 25.2h.6a1.8 1.8 0 011.8 1.8h-4.2a1.8 1.8 0 011.8-1.8zm11.261 3.127l-.384.461-1.844-1.535.383-.462a.6.6 0 01.845-.077l.923.766a.6.6 0 01.078.845v.002zm-2.687 3.228L21.73 45.02l1.536-1.845 1.844 1.535-1.535 1.845zM27.324 42a1.783 1.783 0 00-.373-.44l-.922-.767a1.8 1.8 0 00-2.535.231L22.68 42H18.6V18h19.66l-3.185 3.441a.583.583 0 00-.125.226.31.31 0 01-.008.021.244.244 0 00-.011.035l-.717 3.424a.6.6 0 00.756.699l3.36-.98a.162.162 0 00.023-.01.19.19 0 01.02-.009c.016-.005.031-.013.047-.02a.594.594 0 00.18-.127l4.6-4.971V38.34L39.714 42h-12.39zM46.8 46.8h-10l10-10.5v10.5zm-6.554-1.57a.6.6 0 00.554.37H45a.6.6 0 00.6-.6v-4.2a.6.6 0 00-1.024-.424l-4.2 4.2a.6.6 0 00-.13.654zm4.154-2.981V44.4h-2.15l2.151-2.151zM34.2 34.8h4.2a.6.6 0 110 1.2H21.6a.6.6 0 110-1.2h4.2v-6.6c0-.159.063-.311.175-.425l3.6-3.6a.6.6 0 01.849 0l3.6 3.6a.607.607 0 01.176.425v6.6zm-2.048-7.2L30 25.448l-2.152 2.151h4.304zM33 34.8v-6h-6v6h6zm-3.6-13.2h1.2v1.2h-1.2v-1.2zm1.2 15.6h-1.2v1.2h1.2v-1.2z" fill="#1C57C9"/></svg>