<svg width="60" height="60" fill="none" xmlns="http://www.w3.org/2000/svg"><circle cx="30" cy="30" r="30" fill="#fff"/><path fill-rule="evenodd" clip-rule="evenodd" d="M34.867 12.657a.703.703 0 00-.994 0l-.995.994a.703.703 0 00.995.995l.994-.995a.703.703 0 000-.994zm4.972 0a.704.704 0 01.994.994.703.703 0 11-.994-.994zm5.966.995a.704.704 0 10-.995.997.704.704 0 00.995-.997zm1.989 3.977a.704.704 0 10-.994.996.704.704 0 00.994-.996zM16.217 43.332a.704.704 0 00-.995.995.704.704 0 00.995-.995zm4.723-5.81a.703.703 0 111.006.982l-3.734 3.828a.7.7 0 01-.995.012.703.703 0 01-.012-.995l3.735-3.827zm23.87-8.955l-2.48-2.48-.01-.01-2.973-2.973-.01-.01-2.973-2.973-.01-.01-2.974-2.974-.01-.01-2.48-2.48a.703.703 0 00-.995 0L21.941 22.6l-.996.994a3.52 3.52 0 000 4.972l1.99 1.99a.698.698 0 010 .994l-.981.98-8.518 7.628v.001a4.224 4.224 0 00-.201 6.155 4.19 4.19 0 002.982 1.234 4.19 4.19 0 003.176-1.44v-.001l.002-.001 7.534-8.607.978-.978a.704.704 0 01.994 0l1.989 1.988a3.491 3.491 0 002.486 1.03c.938 0 1.821-.365 2.485-1.03l.995-.994 7.954-7.954a.703.703 0 000-.995zM18.337 45.181a2.793 2.793 0 01-2.12.962 2.793 2.793 0 01-1.989-.822 2.816 2.816 0 01.142-4.11l.002-.002.002-.002 8.037-7.198 3.042 3.042-7.116 8.13zm16.53-7.665a2.094 2.094 0 01-1.491.619c-.564 0-1.093-.22-1.492-.619l-1.989-1.988a2.112 2.112 0 00-2.983 0l-.497.497-2.983-2.983.497-.497c.399-.399.618-.929.618-1.492s-.22-1.093-.618-1.491l-1.989-1.99a2.112 2.112 0 010-2.982l.497-.498L35.364 37.02l-.497.497zm1.492-1.491L23.432 23.098l6.96-6.96 1.492 1.492-3.48 3.48a.703.703 0 10.994.994l3.48-3.48 1.99 1.99-3.481 3.479a.703.703 0 10.994.994l3.48-3.48 1.989 1.989-3.48 3.48a.703.703 0 00.994.994l3.48-3.48 1.99 1.99-3.48 3.479a.703.703 0 00.993.994l3.48-3.48 1.492 1.492-6.96 6.96zm1.491-21.379a.703.703 0 01.995.995l-1.989 1.988a.701.701 0 01-.994 0 .703.703 0 010-.994l1.988-1.989zm4.972.994a.703.703 0 01.994.995l-3.977 3.977a.701.701 0 01-.995 0 .703.703 0 010-.994l3.978-3.978zm2.983 3.978a.703.703 0 00-.994 0l-2.983 2.983a.703.703 0 10.994.994l2.983-2.982a.703.703 0 000-.995zm0 4.972a.703.703 0 01.995.994l-.995.995a.701.701 0 01-.994 0 .703.703 0 010-.995l.994-.994z" fill="#1C57C9"/></svg>