<svg width="168" height="240" fill="none" xmlns="http://www.w3.org/2000/svg"><path opacity=".4" fill-rule="evenodd" clip-rule="evenodd" d="M2.093 4.186a2.093 2.093 0 100-4.186 2.093 2.093 0 000 4.186zm0 18.14a2.093 2.093 0 100-4.187 2.093 2.093 0 000 4.186zm2.093 16.046a2.093 2.093 0 11-4.186 0 2.093 2.093 0 014.186 0zM2.093 58.603a2.093 2.093 0 100-4.186 2.093 2.093 0 000 4.186zm2.093 16.048a2.093 2.093 0 11-4.186 0 2.093 2.093 0 014.186 0zM2.093 94.883a2.093 2.093 0 100-4.186 2.093 2.093 0 000 4.186zm2.093 16.046a2.093 2.093 0 11-4.186 0 2.093 2.093 0 014.186 0zm-2.093 20.232a2.093 2.093 0 100-4.186 2.093 2.093 0 000 4.186zm2.093 16.047a2.093 2.093 0 11-4.186 0 2.093 2.093 0 014.186 0zM2.093 167.44a2.093 2.093 0 100-4.186 2.093 2.093 0 000 4.186zm2.093 16.047a2.094 2.094 0 11-4.187-.001 2.094 2.094 0 014.187.001zm-2.093 20.231a2.093 2.093 0 100-4.186 2.093 2.093 0 000 4.186zm2.093 16.047a2.093 2.093 0 11-4.186 0 2.093 2.093 0 014.186 0zm-2.093 20.233a2.094 2.094 0 10-.001-4.187 2.094 2.094 0 00.001 4.187zM22.325 2.093a2.093 2.093 0 11-4.186 0 2.093 2.093 0 014.186 0zm-2.093 20.232a2.093 2.093 0 100-4.186 2.093 2.093 0 000 4.186zm2.093 16.047a2.093 2.093 0 11-4.186 0 2.093 2.093 0 014.186 0zm-2.093 20.231a2.093 2.093 0 100-4.186 2.093 2.093 0 000 4.186zm2.093 16.048a2.093 2.093 0 11-4.186 0 2.093 2.093 0 014.186 0zm-2.093 20.232a2.093 2.093 0 100-4.186 2.093 2.093 0 000 4.186zm2.093 16.046a2.093 2.093 0 11-4.186 0 2.093 2.093 0 014.186 0zm-2.093 20.232a2.093 2.093 0 100-4.186 2.093 2.093 0 000 4.186zm2.093 16.047a2.093 2.093 0 11-4.186 0 2.093 2.093 0 014.186 0zm-2.093 20.232a2.093 2.093 0 100-4.186 2.093 2.093 0 000 4.186zm2.093 16.047a2.094 2.094 0 11-4.187-.001 2.094 2.094 0 014.187.001zm-2.093 20.231a2.093 2.093 0 100-4.186 2.093 2.093 0 000 4.186zm2.093 16.047a2.093 2.093 0 11-4.186 0 2.093 2.093 0 014.186 0zm-2.093 20.233a2.094 2.094 0 100-4.187 2.094 2.094 0 000 4.187zM40.465 2.093a2.093 2.093 0 11-4.186 0 2.093 2.093 0 014.186 0zm-2.093 20.232a2.093 2.093 0 100-4.186 2.093 2.093 0 000 4.186zm2.093 16.047a2.093 2.093 0 11-4.186 0 2.093 2.093 0 014.186 0zm-2.093 20.231a2.093 2.093 0 100-4.186 2.093 2.093 0 000 4.186zm2.093 16.048a2.093 2.093 0 11-4.186 0 2.093 2.093 0 014.186 0zm-2.093 20.232a2.093 2.093 0 100-4.186 2.093 2.093 0 000 4.186zm2.093 16.046a2.093 2.093 0 11-4.186 0 2.093 2.093 0 014.186 0zm-2.093 20.232a2.093 2.093 0 100-4.186 2.093 2.093 0 000 4.186zm2.093 16.047a2.093 2.093 0 11-4.186 0 2.093 2.093 0 014.186 0zm-2.093 20.232a2.093 2.093 0 100-4.186 2.093 2.093 0 000 4.186zm2.093 16.047a2.094 2.094 0 11-4.188-.001 2.094 2.094 0 014.188.001zm-2.093 20.231a2.093 2.093 0 100-4.186 2.093 2.093 0 000 4.186zm2.093 16.047a2.093 2.093 0 11-4.186 0 2.093 2.093 0 014.186 0zm-2.093 20.233a2.094 2.094 0 10-.002-4.187 2.094 2.094 0 00.002 4.187zM58.604 2.093a2.093 2.093 0 11-4.186 0 2.093 2.093 0 014.186 0zm-2.093 20.232a2.093 2.093 0 100-4.186 2.093 2.093 0 000 4.186zm2.093 16.047a2.093 2.093 0 11-4.186 0 2.093 2.093 0 014.186 0zm-2.093 20.231a2.093 2.093 0 100-4.186 2.093 2.093 0 000 4.186zm2.093 16.048a2.093 2.093 0 11-4.186 0 2.093 2.093 0 014.186 0zm-2.093 20.232a2.093 2.093 0 100-4.186 2.093 2.093 0 000 4.186zm2.093 16.046a2.093 2.093 0 11-4.186 0 2.093 2.093 0 014.186 0zm-2.093 20.232a2.093 2.093 0 100-4.186 2.093 2.093 0 000 4.186zm2.093 16.047a2.093 2.093 0 11-4.186 0 2.093 2.093 0 014.186 0zm-2.093 20.232a2.093 2.093 0 100-4.186 2.093 2.093 0 000 4.186zm2.093 16.047a2.094 2.094 0 11-4.187-.001 2.094 2.094 0 014.187.001zm-2.093 20.231a2.093 2.093 0 100-4.186 2.093 2.093 0 000 4.186zm2.093 16.047a2.093 2.093 0 11-4.186 0 2.093 2.093 0 014.186 0zm-2.093 20.233a2.094 2.094 0 10-.001-4.187 2.094 2.094 0 00.001 4.187zM76.743 2.093a2.093 2.093 0 11-4.186 0 2.093 2.093 0 014.186 0zM74.65 22.325a2.093 2.093 0 100-4.186 2.093 2.093 0 000 4.186zm2.093 16.047a2.093 2.093 0 11-4.186 0 2.093 2.093 0 014.186 0zM74.65 58.603a2.093 2.093 0 100-4.186 2.093 2.093 0 000 4.186zm2.093 16.048a2.093 2.093 0 11-4.186 0 2.093 2.093 0 014.186 0zM74.65 94.883a2.093 2.093 0 100-4.186 2.093 2.093 0 000 4.186zm2.093 16.046a2.093 2.093 0 11-4.186 0 2.093 2.093 0 014.186 0zm-2.093 20.232a2.093 2.093 0 100-4.186 2.093 2.093 0 000 4.186zm2.093 16.047a2.093 2.093 0 11-4.186 0 2.093 2.093 0 014.186 0zM74.65 167.44a2.093 2.093 0 100-4.186 2.093 2.093 0 000 4.186zm2.093 16.047a2.094 2.094 0 11-4.187-.001 2.094 2.094 0 014.187.001zm-2.093 20.231a2.093 2.093 0 100-4.186 2.093 2.093 0 000 4.186zm2.093 16.047a2.093 2.093 0 11-4.186 0 2.093 2.093 0 014.186 0zm-2.093 20.233a2.094 2.094 0 100-4.187 2.094 2.094 0 000 4.187zM94.883 2.093a2.093 2.093 0 11-4.186 0 2.093 2.093 0 014.186 0zM92.79 22.325a2.093 2.093 0 100-4.186 2.093 2.093 0 000 4.186zm2.093 16.047a2.093 2.093 0 11-4.186 0 2.093 2.093 0 014.186 0zM92.79 58.603a2.093 2.093 0 100-4.186 2.093 2.093 0 000 4.186zm2.093 16.048a2.093 2.093 0 11-4.186 0 2.093 2.093 0 014.186 0zM92.79 94.883a2.093 2.093 0 100-4.186 2.093 2.093 0 000 4.186zm2.093 16.046a2.093 2.093 0 11-4.186 0 2.093 2.093 0 014.186 0zm-2.093 20.232a2.093 2.093 0 100-4.186 2.093 2.093 0 000 4.186zm2.093 16.047a2.093 2.093 0 11-4.186 0 2.093 2.093 0 014.186 0zM92.79 167.44a2.093 2.093 0 100-4.186 2.093 2.093 0 000 4.186zm2.093 16.047a2.094 2.094 0 11-4.188-.001 2.094 2.094 0 014.188.001zm-2.093 20.231a2.093 2.093 0 100-4.186 2.093 2.093 0 000 4.186zm2.093 16.047a2.093 2.093 0 11-4.186 0 2.093 2.093 0 014.186 0zm-2.093 20.233a2.094 2.094 0 10-.002-4.187 2.094 2.094 0 00.002 4.187zM113.022 2.093a2.093 2.093 0 11-4.186 0 2.093 2.093 0 014.186 0zm-2.093 20.232a2.093 2.093 0 100-4.186 2.093 2.093 0 000 4.186zm2.093 16.047a2.093 2.093 0 11-4.186 0 2.093 2.093 0 014.186 0zm-2.093 20.231a2.093 2.093 0 100-4.185 2.093 2.093 0 000 4.185zm2.093 16.048a2.093 2.093 0 11-4.186 0 2.093 2.093 0 014.186 0zm-2.093 20.232a2.093 2.093 0 100-4.186 2.093 2.093 0 000 4.186zm2.093 16.046a2.093 2.093 0 11-4.186 0 2.093 2.093 0 014.186 0zm-2.093 20.232a2.093 2.093 0 100-4.186 2.093 2.093 0 000 4.186zm2.093 16.047a2.093 2.093 0 11-4.186 0 2.093 2.093 0 014.186 0zm-2.093 20.232a2.093 2.093 0 100-4.186 2.093 2.093 0 000 4.186zm2.093 16.047a2.094 2.094 0 11-4.187-.001 2.094 2.094 0 014.187.001zm-2.093 20.231a2.093 2.093 0 100-4.186 2.093 2.093 0 000 4.186zm2.093 16.047a2.093 2.093 0 11-4.186 0 2.093 2.093 0 014.186 0zm-2.093 20.233a2.094 2.094 0 10-.001-4.187 2.094 2.094 0 00.001 4.187zM131.161 2.093a2.093 2.093 0 11-4.186 0 2.093 2.093 0 014.186 0zm-2.093 20.232a2.093 2.093 0 100-4.186 2.093 2.093 0 000 4.186zm2.093 16.047a2.093 2.093 0 11-4.186 0 2.093 2.093 0 014.186 0zm-2.093 20.231a2.093 2.093 0 100-4.185 2.093 2.093 0 000 4.185zm2.093 16.048a2.093 2.093 0 11-4.186 0 2.093 2.093 0 014.186 0zm-2.093 20.232a2.093 2.093 0 100-4.186 2.093 2.093 0 000 4.186zm2.093 16.046a2.093 2.093 0 11-4.186 0 2.093 2.093 0 014.186 0zm-2.093 20.232a2.093 2.093 0 100-4.186 2.093 2.093 0 000 4.186zm2.093 16.047a2.093 2.093 0 11-4.186 0 2.093 2.093 0 014.186 0zm-2.093 20.232a2.093 2.093 0 100-4.186 2.093 2.093 0 000 4.186zm2.093 16.047a2.094 2.094 0 11-4.187-.001 2.094 2.094 0 014.187.001zm-2.093 20.231a2.093 2.093 0 100-4.186 2.093 2.093 0 000 4.186zm2.093 16.047a2.093 2.093 0 11-4.186 0 2.093 2.093 0 014.186 0zm-2.093 20.233a2.094 2.094 0 10-.001-4.187 2.094 2.094 0 00.001 4.187zM149.301 2.093a2.093 2.093 0 11-4.186 0 2.093 2.093 0 014.186 0zm-2.093 20.232a2.093 2.093 0 100-4.186 2.093 2.093 0 000 4.186zm2.093 16.047a2.093 2.093 0 11-4.186 0 2.093 2.093 0 014.186 0zm-2.093 20.231a2.093 2.093 0 100-4.185 2.093 2.093 0 000 4.185zm2.093 16.048a2.093 2.093 0 11-4.186 0 2.093 2.093 0 014.186 0zm-2.093 20.232a2.093 2.093 0 100-4.186 2.093 2.093 0 000 4.186zm2.093 16.046a2.093 2.093 0 11-4.186 0 2.093 2.093 0 014.186 0zm-2.093 20.232a2.093 2.093 0 100-4.186 2.093 2.093 0 000 4.186zm2.093 16.047a2.093 2.093 0 11-4.186 0 2.093 2.093 0 014.186 0zm-2.093 20.232a2.093 2.093 0 100-4.186 2.093 2.093 0 000 4.186zm2.093 16.047a2.094 2.094 0 11-4.187-.001 2.094 2.094 0 014.187.001zm-2.093 20.231a2.093 2.093 0 100-4.186 2.093 2.093 0 000 4.186zm2.093 16.047a2.093 2.093 0 11-4.186 0 2.093 2.093 0 014.186 0zm-2.093 20.233a2.094 2.094 0 10-.001-4.187 2.094 2.094 0 00.001 4.187zM167.44 2.093a2.093 2.093 0 11-4.186 0 2.093 2.093 0 014.186 0zm-2.093 20.232a2.093 2.093 0 100-4.186 2.093 2.093 0 000 4.186zm2.093 16.047a2.093 2.093 0 11-4.186 0 2.093 2.093 0 014.186 0zm-2.093 20.231a2.093 2.093 0 100-4.185 2.093 2.093 0 000 4.185zm2.093 16.048a2.093 2.093 0 11-4.186 0 2.093 2.093 0 014.186 0zm-2.093 20.232a2.093 2.093 0 100-4.186 2.093 2.093 0 000 4.186zm2.093 16.046a2.093 2.093 0 11-4.186 0 2.093 2.093 0 014.186 0zm-2.093 20.232a2.093 2.093 0 100-4.186 2.093 2.093 0 000 4.186zm2.093 16.047a2.093 2.093 0 11-4.186 0 2.093 2.093 0 014.186 0zm-2.093 20.232a2.093 2.093 0 100-4.186 2.093 2.093 0 000 4.186zm2.093 16.047a2.094 2.094 0 11-4.187-.001 2.094 2.094 0 014.187.001zm-2.093 20.231a2.093 2.093 0 100-4.186 2.093 2.093 0 000 4.186zm2.093 16.047a2.093 2.093 0 11-4.186 0 2.093 2.093 0 014.186 0zm-2.093 20.233a2.094 2.094 0 10-.001-4.187 2.094 2.094 0 00.001 4.187z" fill="#262B35"/></svg>